<?xml version="1.0" encoding="UTF-8"?><svg id="a" xmlns="http://www.w3.org/2000/svg" xmlns:xlink="http://www.w3.org/1999/xlink" viewBox="0 0 1416.9 155.88"><defs><style>.c{fill:#010101;}.c,.d{stroke-width:0px;}.d{fill:url(#b);}</style><linearGradient id="b" x1="0" y1="77.94" x2="1507.34" y2="77.94" gradientUnits="userSpaceOnUse"><stop offset="0" stop-color="#63bbe9" stop-opacity="0"/><stop offset=".12" stop-color="#5ab6e6" stop-opacity=".18"/><stop offset=".23" stop-color="#1995d3" stop-opacity=".34"/><stop offset=".37" stop-color="#0d85c8" stop-opacity=".6"/><stop offset=".5" stop-color="#1a70b8" stop-opacity=".73"/><stop offset=".67" stop-color="#2763ad" stop-opacity=".84"/><stop offset=".86" stop-color="#2b59a4" stop-opacity=".67"/><stop offset="1" stop-color="#2b4c98" stop-opacity="0"/></linearGradient></defs><path class="d" d="m12.11,119.92V24.02h60.56c13.66,0,23.29,2.04,28.88,6.11,5.59,4.07,8.39,11.15,8.39,21.22,0,8.85-1.52,15.02-4.57,18.51-3.04,3.49-8.85,5.75-17.42,6.78v.21c13.48.75,20.22,6.93,20.22,18.55v24.52h-14.35v-22.06c0-11.19-6.43-16.79-19.29-16.79H26.46v38.85h-14.35Zm14.35-47.98h41.46c10.93,0,18.38-1.25,22.36-3.76,3.97-2.5,5.96-7.22,5.96-14.16,0-8.66-1.48-14.31-4.43-16.93-2.95-2.62-9.27-3.93-18.96-3.93H26.46v38.78Z"/><path class="d" d="m167.14,51.77c16.46,0,27.14,2.15,32.05,6.46,4.91,4.31,7.36,13.68,7.36,28.1s-2.45,23.79-7.36,28.1c-4.91,4.31-15.59,6.46-32.05,6.46s-27.05-2.15-31.96-6.46c-4.91-4.31-7.36-13.67-7.36-28.1s2.45-23.79,7.36-28.1c4.91-4.31,15.56-6.46,31.96-6.46Zm0,8.15c-11.55,0-18.71,1.42-21.48,4.25-2.76,2.83-4.15,10.22-4.15,22.16s1.38,19.33,4.15,22.16c2.76,2.83,9.92,4.25,21.48,4.25s18.8-1.42,21.57-4.25c2.76-2.83,4.15-10.22,4.15-22.16s-1.38-19.33-4.15-22.16c-2.76-2.83-9.95-4.25-21.57-4.25Z"/><path class="d" d="m263.67,51.77c16.46,0,27.14,2.15,32.05,6.46,4.91,4.31,7.36,13.68,7.36,28.1s-2.46,23.79-7.36,28.1c-4.91,4.31-15.59,6.46-32.05,6.46s-27.05-2.15-31.96-6.46c-4.91-4.31-7.36-13.67-7.36-28.1s2.45-23.79,7.36-28.1c4.91-4.31,15.56-6.46,31.96-6.46Zm0,8.15c-11.55,0-18.71,1.42-21.48,4.25-2.76,2.83-4.15,10.22-4.15,22.16s1.38,19.33,4.15,22.16c2.76,2.83,9.92,4.25,21.48,4.25s18.8-1.42,21.57-4.25c2.76-2.83,4.15-10.22,4.15-22.16s-1.38-19.33-4.15-22.16c-2.76-2.83-9.95-4.25-21.57-4.25Z"/><path class="d" d="m392.42,70.32h-13.04c0-4.68-1.26-7.59-3.77-8.71s-8.99-1.69-19.43-1.69c-9.69,0-15.84.6-18.45,1.79s-3.91,4.06-3.91,8.61c0,6.88,4.38,10.49,13.14,10.82l10.53.42,13.32.49c16.15.61,24.22,6.98,24.22,19.11,0,7.54-2.67,12.72-8.01,15.53-5.34,2.81-15.13,4.21-29.35,4.21s-24.64-1.33-30.14-4c-5.5-2.67-8.25-7.56-8.25-14.68l.09-3.65h13.51l.09,3.16c0,4.4,1.49,7.34,4.47,8.82,2.98,1.47,8.85,2.21,17.61,2.21,10.75,0,17.81-.77,21.2-2.32,3.38-1.55,5.08-4.78,5.08-9.69,0-7.07-4.25-10.61-12.76-10.61-19.81,0-32.84-1.26-39.08-3.79s-9.36-7.77-9.36-15.74c0-7.54,2.47-12.56,7.41-15.07,4.94-2.5,14.77-3.76,29.49-3.76,23.6,0,35.4,5.36,35.4,16.09v2.46Z"/><path class="d" d="m476.46,24.02v95.89h-14.35V24.02h14.35Z"/><path class="d" d="m500.31,52.76h12.58l-.37,9.13.37.21c3.97-6.88,13.85-10.33,29.63-10.33,12.73,0,21.35,1.69,25.85,5.06,4.5,3.37,6.75,9.83,6.75,19.39v43.7h-13.04v-45.38c0-5.76-1.46-9.63-4.38-11.63-2.92-1.99-8.54-2.99-16.86-2.99-18.32,0-27.49,6.53-27.49,19.6v40.39h-13.04V52.76Z"/><path class="d" d="m667.73,70.32h-13.04c0-4.68-1.26-7.59-3.77-8.71s-8.99-1.69-19.43-1.69c-9.69,0-15.84.6-18.45,1.79s-3.91,4.06-3.91,8.61c0,6.88,4.38,10.49,13.14,10.82l10.53.42,13.32.49c16.15.61,24.22,6.98,24.22,19.11,0,7.54-2.67,12.72-8.01,15.53-5.34,2.81-15.13,4.21-29.35,4.21s-24.64-1.33-30.14-4c-5.5-2.67-8.25-7.56-8.25-14.68l.09-3.65h13.51l.09,3.16c0,4.4,1.49,7.34,4.47,8.82,2.98,1.47,8.85,2.21,17.61,2.21,10.75,0,17.81-.77,21.2-2.32,3.38-1.55,5.08-4.78,5.08-9.69,0-7.07-4.25-10.61-12.76-10.61-19.81,0-32.84-1.26-39.08-3.79s-9.36-7.77-9.36-15.74c0-7.54,2.47-12.56,7.41-15.07,4.94-2.5,14.77-3.76,29.49-3.76,23.6,0,35.4,5.36,35.4,16.09v2.46Z"/><path class="d" d="m736.31,52.76v8.15h-34.29v41.1c0,7.17,4.22,10.75,12.67,10.75s12.58-3.21,12.58-9.62l.09-3.3.19-3.72h12.11l.09,4.99c0,13.21-8.32,19.81-24.97,19.81s-25.81-5.5-25.81-16.51v-43.48h-12.3v-8.15h12.3v-16.16h13.04v16.16h34.29Z"/><path class="d" d="m752.52,52.76h13.04l-1.3,7.73.28.21c5.15-6.32,13.66-9.48,25.53-9.48,16.4,0,24.6,6.37,24.6,19.11l-.09,4.64h-12.86l.28-1.69c.19-1.78.28-2.97.28-3.58,0-6.88-4.97-10.33-14.91-10.33-14.54,0-21.8,6.77-21.8,20.3v40.25h-13.04V52.76Z"/><path class="d" d="m899.91,52.76v67.16h-13.04l.93-8.78-.28-.21c-4.53,6.65-14.22,9.98-29.07,9.98-20.81,0-31.21-7.82-31.21-23.46v-44.68h13.04v44.68c0,6.09,1.33,10.16,4.01,12.22,2.67,2.06,7.92,3.09,15.75,3.09,10.25,0,17.28-1.53,21.1-4.6s5.73-8.7,5.73-16.9v-38.5h13.04Z"/><path class="d" d="m924.04,52.76h13.04l-.28,10.12.28.21c5.03-7.54,14.72-11.31,29.07-11.31,15.09,0,24.25,3.77,27.49,11.31h.37c5.59-7.54,15.81-11.31,30.65-11.31,20.99,0,31.49,8.08,31.49,24.24v43.91h-13.04v-44.82c0-5.9-1.4-9.9-4.19-12.01-2.79-2.11-8.08-3.16-15.84-3.16-10.31,0-17.3,1.46-20.96,4.39-3.67,2.93-5.5,8.51-5.5,16.75v38.85h-13.04v-43.91l-.19-3.09c0-8.66-6.55-13-19.66-13-17.76,0-26.65,7.28-26.65,21.85v38.15h-13.04V52.76Z"/><path class="d" d="m1143.54,99.61h13.32l.09,2.46c0,6.98-2.81,11.86-8.43,14.65-5.62,2.79-15.48,4.18-29.58,4.18-16.4,0-27.16-2.26-32.28-6.78-5.12-4.52-7.69-14.01-7.69-28.49,0-13.39,2.58-22.39,7.73-26.98,5.15-4.59,15.25-6.88,30.28-6.88,16.4,0,27.14,1.99,32.24,5.97,5.09,3.98,7.64,12.36,7.64,25.15v5.27h-64.1c0,10.58,1.51,17.33,4.52,20.23,3.01,2.9,10.05,4.36,21.1,4.36s17.31-.69,20.45-2.07c3.14-1.38,4.7-4.37,4.7-8.96v-2.11Zm0-19.11l-.09-3.16c0-7.26-1.58-11.98-4.75-14.16-3.17-2.18-10-3.27-20.5-3.27s-17.41,1.28-20.54,3.83c-3.14,2.55-4.71,8.14-4.71,16.75h50.59Z"/><path class="d" d="m1177.46,52.76h12.58l-.37,9.13.37.21c3.97-6.88,13.85-10.33,29.63-10.33,12.73,0,21.35,1.69,25.85,5.06,4.5,3.37,6.75,9.83,6.75,19.39v43.7h-13.04v-45.38c0-5.76-1.46-9.63-4.38-11.63-2.92-1.99-8.54-2.99-16.86-2.99-18.32,0-27.49,6.53-27.49,19.6v40.39h-13.04V52.76Z"/><path class="d" d="m1323.08,52.76v8.15h-34.29v41.1c0,7.17,4.22,10.75,12.67,10.75s12.58-3.21,12.58-9.62l.09-3.3.19-3.72h12.11l.09,4.99c0,13.21-8.32,19.81-24.97,19.81s-25.81-5.5-25.81-16.51v-43.48h-12.3v-8.15h12.3v-16.16h13.04v16.16h34.29Z"/><path class="d" d="m1407.02,70.32h-13.04c0-4.68-1.26-7.59-3.77-8.71s-8.99-1.69-19.43-1.69c-9.69,0-15.84.6-18.45,1.79s-3.91,4.06-3.91,8.61c0,6.88,4.38,10.49,13.14,10.82l10.53.42,13.32.49c16.15.61,24.22,6.98,24.22,19.11,0,7.54-2.67,12.72-8.01,15.53-5.34,2.81-15.13,4.21-29.35,4.21s-24.64-1.33-30.14-4c-5.5-2.67-8.25-7.56-8.25-14.68l.09-3.65h13.51l.09,3.16c0,4.4,1.49,7.34,4.47,8.82,2.98,1.47,8.85,2.21,17.61,2.21,10.75,0,17.81-.77,21.2-2.32,3.38-1.55,5.08-4.78,5.08-9.69,0-7.07-4.25-10.61-12.76-10.61-19.81,0-32.84-1.26-39.08-3.79s-9.36-7.77-9.36-15.74c0-7.54,2.47-12.56,7.41-15.07,4.94-2.5,14.77-3.76,29.49-3.76,23.6,0,35.4,5.36,35.4,16.09v2.46Z"/><path class="c" d="m12.11,119.92V24.02h60.56c13.66,0,23.29,2.04,28.88,6.11,5.59,4.07,8.39,11.15,8.39,21.22,0,8.85-1.52,15.02-4.57,18.51-3.04,3.49-8.85,5.75-17.42,6.78v.21c13.48.75,20.22,6.93,20.22,18.55v24.52h-14.35v-22.06c0-11.19-6.43-16.79-19.29-16.79H26.46v38.85h-14.35Zm14.35-47.98h41.46c10.93,0,18.38-1.25,22.36-3.76,3.97-2.5,5.96-7.22,5.96-14.16,0-8.66-1.48-14.31-4.43-16.93-2.95-2.62-9.27-3.93-18.96-3.93H26.46v38.78Z"/><path class="c" d="m167.14,51.77c16.46,0,27.14,2.15,32.05,6.46,4.91,4.31,7.36,13.68,7.36,28.1s-2.45,23.79-7.36,28.1c-4.91,4.31-15.59,6.46-32.05,6.46s-27.05-2.15-31.96-6.46c-4.91-4.31-7.36-13.67-7.36-28.1s2.45-23.79,7.36-28.1c4.91-4.31,15.56-6.46,31.96-6.46Zm0,8.15c-11.55,0-18.71,1.42-21.48,4.25-2.76,2.83-4.15,10.22-4.15,22.16s1.38,19.33,4.15,22.16c2.76,2.83,9.92,4.25,21.48,4.25s18.8-1.42,21.57-4.25c2.76-2.83,4.15-10.22,4.15-22.16s-1.38-19.33-4.15-22.16c-2.76-2.83-9.95-4.25-21.57-4.25Z"/><path class="c" d="m263.67,51.77c16.46,0,27.14,2.15,32.05,6.46,4.91,4.31,7.36,13.68,7.36,28.1s-2.46,23.79-7.36,28.1c-4.91,4.31-15.59,6.46-32.05,6.46s-27.05-2.15-31.96-6.46c-4.91-4.31-7.36-13.67-7.36-28.1s2.45-23.79,7.36-28.1c4.91-4.31,15.56-6.46,31.96-6.46Zm0,8.15c-11.55,0-18.71,1.42-21.48,4.25-2.76,2.83-4.15,10.22-4.15,22.16s1.38,19.33,4.15,22.16c2.76,2.83,9.92,4.25,21.48,4.25s18.8-1.42,21.57-4.25c2.76-2.83,4.15-10.22,4.15-22.16s-1.38-19.33-4.15-22.16c-2.76-2.83-9.95-4.25-21.57-4.25Z"/><path class="c" d="m392.42,70.32h-13.04c0-4.68-1.26-7.59-3.77-8.71s-8.99-1.69-19.43-1.69c-9.69,0-15.84.6-18.45,1.79s-3.91,4.06-3.91,8.61c0,6.88,4.38,10.49,13.14,10.82l10.53.42,13.32.49c16.15.61,24.22,6.98,24.22,19.11,0,7.54-2.67,12.72-8.01,15.53-5.34,2.81-15.13,4.21-29.35,4.21s-24.64-1.33-30.14-4c-5.5-2.67-8.25-7.56-8.25-14.68l.09-3.65h13.51l.09,3.16c0,4.4,1.49,7.34,4.47,8.82,2.98,1.47,8.85,2.21,17.61,2.21,10.75,0,17.81-.77,21.2-2.32,3.38-1.55,5.08-4.78,5.08-9.69,0-7.07-4.25-10.61-12.76-10.61-19.81,0-32.84-1.26-39.08-3.79s-9.36-7.77-9.36-15.74c0-7.54,2.47-12.56,7.41-15.07,4.94-2.5,14.77-3.76,29.49-3.76,23.6,0,35.4,5.36,35.4,16.09v2.46Z"/><path class="c" d="m476.46,24.02v95.89h-14.35V24.02h14.35Z"/><path class="c" d="m500.31,52.76h12.58l-.37,9.13.37.21c3.97-6.88,13.85-10.33,29.63-10.33,12.73,0,21.35,1.69,25.85,5.06,4.5,3.37,6.75,9.83,6.75,19.39v43.7h-13.04v-45.38c0-5.76-1.46-9.63-4.38-11.63-2.92-1.99-8.54-2.99-16.86-2.99-18.32,0-27.49,6.53-27.49,19.6v40.39h-13.04V52.76Z"/><path class="c" d="m667.73,70.32h-13.04c0-4.68-1.26-7.59-3.77-8.71s-8.99-1.69-19.43-1.69c-9.69,0-15.84.6-18.45,1.79s-3.91,4.06-3.91,8.61c0,6.88,4.38,10.49,13.14,10.82l10.53.42,13.32.49c16.15.61,24.22,6.98,24.22,19.11,0,7.54-2.67,12.72-8.01,15.53-5.34,2.81-15.13,4.21-29.35,4.21s-24.64-1.33-30.14-4c-5.5-2.67-8.25-7.56-8.25-14.68l.09-3.65h13.51l.09,3.16c0,4.4,1.49,7.34,4.47,8.82,2.98,1.47,8.85,2.21,17.61,2.21,10.75,0,17.81-.77,21.2-2.32,3.38-1.55,5.08-4.78,5.08-9.69,0-7.07-4.25-10.61-12.76-10.61-19.81,0-32.84-1.26-39.08-3.79s-9.36-7.77-9.36-15.74c0-7.54,2.47-12.56,7.41-15.07,4.94-2.5,14.77-3.76,29.49-3.76,23.6,0,35.4,5.36,35.4,16.09v2.46Z"/><path class="c" d="m736.31,52.76v8.15h-34.29v41.1c0,7.17,4.22,10.75,12.67,10.75s12.58-3.21,12.58-9.62l.09-3.3.19-3.72h12.11l.09,4.99c0,13.21-8.32,19.81-24.97,19.81s-25.81-5.5-25.81-16.51v-43.48h-12.3v-8.15h12.3v-16.16h13.04v16.16h34.29Z"/><path class="c" d="m752.52,52.76h13.04l-1.3,7.73.28.21c5.15-6.32,13.66-9.48,25.53-9.48,16.4,0,24.6,6.37,24.6,19.11l-.09,4.64h-12.86l.28-1.69c.19-1.78.28-2.97.28-3.58,0-6.88-4.97-10.33-14.91-10.33-14.54,0-21.8,6.77-21.8,20.3v40.25h-13.04V52.76Z"/><path class="c" d="m899.91,52.76v67.16h-13.04l.93-8.78-.28-.21c-4.53,6.65-14.22,9.98-29.07,9.98-20.81,0-31.21-7.82-31.21-23.46v-44.68h13.04v44.68c0,6.09,1.33,10.16,4.01,12.22,2.67,2.06,7.92,3.09,15.75,3.09,10.25,0,17.28-1.53,21.1-4.6s5.73-8.7,5.73-16.9v-38.5h13.04Z"/><path class="c" d="m924.04,52.76h13.04l-.28,10.12.28.21c5.03-7.54,14.72-11.31,29.07-11.31,15.09,0,24.25,3.77,27.49,11.31h.37c5.59-7.54,15.81-11.31,30.65-11.31,20.99,0,31.49,8.08,31.49,24.24v43.91h-13.04v-44.82c0-5.9-1.4-9.9-4.19-12.01-2.79-2.11-8.08-3.16-15.84-3.16-10.31,0-17.3,1.46-20.96,4.39-3.67,2.93-5.5,8.51-5.5,16.75v38.85h-13.04v-43.91l-.19-3.09c0-8.66-6.55-13-19.66-13-17.76,0-26.65,7.28-26.65,21.85v38.15h-13.04V52.76Z"/><path class="c" d="m1143.54,99.61h13.32l.09,2.46c0,6.98-2.81,11.86-8.43,14.65-5.62,2.79-15.48,4.18-29.58,4.18-16.4,0-27.16-2.26-32.28-6.78-5.12-4.52-7.69-14.01-7.69-28.49,0-13.39,2.58-22.39,7.73-26.98,5.15-4.59,15.25-6.88,30.28-6.88,16.4,0,27.14,1.99,32.24,5.97,5.09,3.98,7.64,12.36,7.64,25.15v5.27h-64.1c0,10.58,1.51,17.33,4.52,20.23,3.01,2.9,10.05,4.36,21.1,4.36s17.31-.69,20.45-2.07c3.14-1.38,4.7-4.37,4.7-8.96v-2.11Zm0-19.11l-.09-3.16c0-7.26-1.58-11.98-4.75-14.16-3.17-2.18-10-3.27-20.5-3.27s-17.41,1.28-20.54,3.83c-3.14,2.55-4.71,8.14-4.71,16.75h50.59Z"/><path class="c" d="m1177.46,52.76h12.58l-.37,9.13.37.21c3.97-6.88,13.85-10.33,29.63-10.33,12.73,0,21.35,1.69,25.85,5.06,4.5,3.37,6.75,9.83,6.75,19.39v43.7h-13.04v-45.38c0-5.76-1.46-9.63-4.38-11.63-2.92-1.99-8.54-2.99-16.86-2.99-18.32,0-27.49,6.53-27.49,19.6v40.39h-13.04V52.76Z"/><path class="c" d="m1323.08,52.76v8.15h-34.29v41.1c0,7.17,4.22,10.75,12.67,10.75s12.58-3.21,12.58-9.62l.09-3.3.19-3.72h12.11l.09,4.99c0,13.21-8.32,19.81-24.97,19.81s-25.81-5.5-25.81-16.51v-43.48h-12.3v-8.15h12.3v-16.16h13.04v16.16h34.29Z"/><path class="c" d="m1407.02,70.32h-13.04c0-4.68-1.26-7.59-3.77-8.71s-8.99-1.69-19.43-1.69c-9.69,0-15.84.6-18.45,1.79s-3.91,4.06-3.91,8.61c0,6.88,4.38,10.49,13.14,10.82l10.53.42,13.32.49c16.15.61,24.22,6.98,24.22,19.11,0,7.54-2.67,12.72-8.01,15.53-5.34,2.81-15.13,4.21-29.35,4.21s-24.64-1.33-30.14-4c-5.5-2.67-8.25-7.56-8.25-14.68l.09-3.65h13.51l.09,3.16c0,4.4,1.49,7.34,4.47,8.82,2.98,1.47,8.85,2.21,17.61,2.21,10.75,0,17.81-.77,21.2-2.32,3.38-1.55,5.08-4.78,5.08-9.69,0-7.07-4.25-10.61-12.76-10.61-19.81,0-32.84-1.26-39.08-3.79s-9.36-7.77-9.36-15.74c0-7.54,2.47-12.56,7.41-15.07,4.94-2.5,14.77-3.76,29.49-3.76,23.6,0,35.4,5.36,35.4,16.09v2.46Z"/></svg>