<?xml version="1.0" encoding="UTF-8"?><svg id="a" xmlns="http://www.w3.org/2000/svg" viewBox="0 0 772.93 165.27"><defs><style>.b{fill:#010101;stroke-width:0px;}</style></defs><path class="b" d="m21.15,25.47v101.66h-11.47V25.47h11.47Z"/><path class="b" d="m40.22,55.93h10.05l-.3,9.68.3.22c3.18-7.3,11.07-10.95,23.68-10.95,10.18,0,17.07,1.79,20.67,5.36,3.6,3.57,5.4,10.43,5.4,20.56v46.33h-10.43v-48.11c0-6.11-1.17-10.21-3.5-12.33-2.33-2.11-6.83-3.17-13.48-3.17-14.65,0-21.97,6.93-21.97,20.78v42.82h-10.43V55.93Z"/><path class="b" d="m174.05,74.55h-10.43c0-4.96-1.01-8.04-3.02-9.23-2.01-1.19-7.19-1.79-15.53-1.79-7.75,0-12.66.63-14.75,1.9s-3.13,4.31-3.13,9.12c0,7.3,3.5,11.12,10.5,11.47l8.42.45,10.65.52c12.91.65,19.36,7.4,19.36,20.26,0,8-2.14,13.48-6.4,16.46-4.27,2.98-12.09,4.47-23.46,4.47s-19.7-1.42-24.09-4.25-6.59-8.02-6.59-15.57l.07-3.87h10.8l.07,3.35c0,4.67,1.19,7.78,3.57,9.35,2.38,1.56,7.08,2.35,14.08,2.35,8.59,0,14.24-.82,16.94-2.46,2.71-1.64,4.06-5.06,4.06-10.28,0-7.5-3.4-11.25-10.2-11.25-15.84,0-26.25-1.34-31.24-4.02s-7.48-8.24-7.48-16.68c0-7.99,1.97-13.32,5.92-15.98,3.95-2.66,11.8-3.98,23.57-3.98,18.87,0,28.3,5.69,28.3,17.06v2.61Z"/><path class="b" d="m228.87,55.93v8.64h-27.41v43.57c0,7.6,3.38,11.4,10.13,11.4s10.05-3.4,10.05-10.2l.07-3.5.15-3.95h9.68l.07,5.29c0,14-6.65,21-19.96,21s-20.63-5.83-20.63-17.5v-46.1h-9.83v-8.64h9.83v-17.13h10.43v17.13h27.41Z"/><path class="b" d="m241.83,55.93h10.43l-1.04,8.19.22.22c4.12-6.7,10.92-10.05,20.41-10.05,13.11,0,19.66,6.75,19.66,20.26l-.07,4.92h-10.28l.22-1.79c.15-1.89.22-3.15.22-3.8,0-7.3-3.97-10.95-11.92-10.95-11.62,0-17.43,7.18-17.43,21.52v42.68h-10.43V55.93Z"/><path class="b" d="m359.65,55.93v71.2h-10.43l.75-9.31-.22-.22c-3.62,7.05-11.37,10.58-23.24,10.58-16.63,0-24.95-8.29-24.95-24.88v-47.37h10.43v47.37c0,6.46,1.07,10.77,3.2,12.96,2.13,2.19,6.33,3.28,12.59,3.28,8.19,0,13.82-1.63,16.87-4.88,3.05-3.25,4.58-9.22,4.58-17.91v-40.81h10.43Z"/><path class="b" d="m378.94,55.93h10.43l-.22,10.72.22.22c4.02-7.99,11.77-11.99,23.24-11.99,12.07,0,19.39,4,21.97,11.99h.3c4.47-7.99,12.64-11.99,24.5-11.99,16.78,0,25.17,8.56,25.17,25.69v46.55h-10.43v-47.52c0-6.26-1.12-10.5-3.35-12.74s-6.46-3.35-12.66-3.35c-8.24,0-13.83,1.55-16.76,4.65-2.93,3.1-4.39,9.02-4.39,17.76v41.19h-10.43v-46.55l-.15-3.28c0-9.19-5.24-13.78-15.71-13.78-14.2,0-21.3,7.72-21.3,23.16v40.44h-10.43V55.93Z"/><path class="b" d="m554.41,105.61h10.65l.07,2.61c0,7.4-2.25,12.58-6.74,15.53-4.49,2.95-12.38,4.43-23.65,4.43-13.11,0-21.71-2.39-25.81-7.19-4.1-4.79-6.14-14.86-6.14-30.2,0-14.2,2.06-23.73,6.18-28.6,4.12-4.87,12.19-7.3,24.21-7.3,13.11,0,21.7,2.11,25.77,6.33,4.07,4.22,6.11,13.11,6.11,26.66v5.59h-51.24c0,11.22,1.2,18.37,3.61,21.45,2.41,3.08,8.03,4.62,16.87,4.62s13.84-.73,16.35-2.2c2.51-1.46,3.76-4.63,3.76-9.5v-2.23Zm0-20.26l-.07-3.35c0-7.7-1.27-12.7-3.8-15.01-2.53-2.31-7.99-3.46-16.38-3.46s-13.92,1.35-16.42,4.06c-2.51,2.71-3.76,8.63-3.76,17.76h40.44Z"/><path class="b" d="m581.52,55.93h10.05l-.3,9.68.3.22c3.18-7.3,11.07-10.95,23.68-10.95,10.18,0,17.07,1.79,20.67,5.36,3.6,3.57,5.4,10.43,5.4,20.56v46.33h-10.43v-48.11c0-6.11-1.17-10.21-3.5-12.33-2.33-2.11-6.83-3.17-13.48-3.17-14.65,0-21.97,6.93-21.97,20.78v42.82h-10.43V55.93Z"/><path class="b" d="m697.93,55.93v8.64h-27.41v43.57c0,7.6,3.38,11.4,10.13,11.4s10.05-3.4,10.05-10.2l.08-3.5.15-3.95h9.68l.07,5.29c0,14-6.65,21-19.96,21s-20.63-5.83-20.63-17.5v-46.1h-9.83v-8.64h9.83v-17.13h10.43v17.13h27.41Z"/><path class="b" d="m765.04,74.55h-10.43c0-4.96-1.01-8.04-3.02-9.23-2.01-1.19-7.19-1.79-15.53-1.79-7.75,0-12.66.63-14.75,1.9-2.08,1.27-3.13,4.31-3.13,9.12,0,7.3,3.5,11.12,10.5,11.47l8.42.45,10.65.52c12.91.65,19.36,7.4,19.36,20.26,0,8-2.14,13.48-6.41,16.46-4.27,2.98-12.09,4.47-23.46,4.47s-19.7-1.42-24.09-4.25c-4.39-2.83-6.59-8.02-6.59-15.57l.07-3.87h10.8l.07,3.35c0,4.67,1.19,7.78,3.58,9.35,2.38,1.56,7.08,2.35,14.08,2.35,8.59,0,14.24-.82,16.94-2.46,2.71-1.64,4.06-5.06,4.06-10.28,0-7.5-3.4-11.25-10.2-11.25-15.84,0-26.25-1.34-31.24-4.02s-7.49-8.24-7.49-16.68c0-7.99,1.97-13.32,5.92-15.98,3.95-2.66,11.8-3.98,23.57-3.98,18.87,0,28.3,5.69,28.3,17.06v2.61Z"/></svg>