<?xml version="1.0" encoding="UTF-8"?><svg id="Roos" xmlns="http://www.w3.org/2000/svg" xmlns:xlink="http://www.w3.org/1999/xlink" viewBox="0 0 402.3 155.88"><defs><style>.c{fill:#010101;}.c,.d{stroke-width:0px;}.d{fill:url(#b);}</style><linearGradient id="b" x1="0" y1="77.94" x2="492.74" y2="77.94" gradientUnits="userSpaceOnUse"><stop offset="0" stop-color="#63bbe9" stop-opacity="0"/><stop offset=".12" stop-color="#5ab6e6" stop-opacity=".18"/><stop offset=".23" stop-color="#1995d3" stop-opacity=".34"/><stop offset=".37" stop-color="#0d85c8" stop-opacity=".6"/><stop offset=".5" stop-color="#1a70b8" stop-opacity=".73"/><stop offset=".67" stop-color="#2763ad" stop-opacity=".84"/><stop offset=".86" stop-color="#2b59a4" stop-opacity=".67"/><stop offset="1" stop-color="#2b4c98" stop-opacity="0"/></linearGradient></defs><path class="d" d="m12.11,119.92V24.02h60.56c13.66,0,23.29,2.04,28.88,6.11,5.59,4.07,8.39,11.15,8.39,21.22,0,8.85-1.52,15.02-4.57,18.51-3.04,3.49-8.85,5.75-17.42,6.78v.21c13.48.75,20.22,6.93,20.22,18.55v24.52h-14.35v-22.06c0-11.19-6.43-16.79-19.29-16.79H26.46v38.85h-14.35Zm14.35-47.98h41.46c10.93,0,18.38-1.25,22.36-3.76,3.97-2.5,5.96-7.22,5.96-14.16,0-8.66-1.48-14.31-4.43-16.93-2.95-2.62-9.27-3.93-18.96-3.93H26.46v38.78Z"/><path class="d" d="m167.14,51.77c16.46,0,27.14,2.15,32.05,6.46,4.91,4.31,7.36,13.68,7.36,28.1s-2.45,23.79-7.36,28.1c-4.91,4.31-15.59,6.46-32.05,6.46s-27.05-2.15-31.96-6.46c-4.91-4.31-7.36-13.67-7.36-28.1s2.45-23.79,7.36-28.1c4.91-4.31,15.56-6.46,31.96-6.46Zm0,8.15c-11.55,0-18.71,1.42-21.48,4.25-2.76,2.83-4.15,10.22-4.15,22.16s1.38,19.33,4.15,22.16c2.76,2.83,9.92,4.25,21.48,4.25s18.8-1.42,21.57-4.25c2.76-2.83,4.15-10.22,4.15-22.16s-1.38-19.33-4.15-22.16c-2.76-2.83-9.95-4.25-21.57-4.25Z"/><path class="d" d="m263.67,51.77c16.46,0,27.14,2.15,32.05,6.46,4.91,4.31,7.36,13.68,7.36,28.1s-2.46,23.79-7.36,28.1c-4.91,4.31-15.59,6.46-32.05,6.46s-27.05-2.15-31.96-6.46c-4.91-4.31-7.36-13.67-7.36-28.1s2.45-23.79,7.36-28.1c4.91-4.31,15.56-6.46,31.96-6.46Zm0,8.15c-11.55,0-18.71,1.42-21.48,4.25-2.76,2.83-4.15,10.22-4.15,22.16s1.38,19.33,4.15,22.16c2.76,2.83,9.92,4.25,21.48,4.25s18.8-1.42,21.57-4.25c2.76-2.83,4.15-10.22,4.15-22.16s-1.38-19.33-4.15-22.16c-2.76-2.83-9.95-4.25-21.57-4.25Z"/><path class="d" d="m392.42,70.32h-13.04c0-4.68-1.26-7.59-3.77-8.71s-8.99-1.69-19.43-1.69c-9.69,0-15.84.6-18.45,1.79s-3.91,4.06-3.91,8.61c0,6.88,4.38,10.49,13.14,10.82l10.53.42,13.32.49c16.15.61,24.22,6.98,24.22,19.11,0,7.54-2.67,12.72-8.01,15.53-5.34,2.81-15.13,4.21-29.35,4.21s-24.64-1.33-30.14-4c-5.5-2.67-8.25-7.56-8.25-14.68l.09-3.65h13.51l.09,3.16c0,4.4,1.49,7.34,4.47,8.82,2.98,1.47,8.85,2.21,17.61,2.21,10.75,0,17.81-.77,21.2-2.32,3.38-1.55,5.08-4.78,5.08-9.69,0-7.07-4.25-10.61-12.76-10.61-19.81,0-32.84-1.26-39.08-3.79s-9.36-7.77-9.36-15.74c0-7.54,2.47-12.56,7.41-15.07,4.94-2.5,14.77-3.76,29.49-3.76,23.6,0,35.4,5.36,35.4,16.09v2.46Z"/><path class="c" d="m12.11,119.92V24.02h60.56c13.66,0,23.29,2.04,28.88,6.11,5.59,4.07,8.39,11.15,8.39,21.22,0,8.85-1.52,15.02-4.57,18.51-3.04,3.49-8.85,5.75-17.42,6.78v.21c13.48.75,20.22,6.93,20.22,18.55v24.52h-14.35v-22.06c0-11.19-6.43-16.79-19.29-16.79H26.46v38.85h-14.35Zm14.35-47.98h41.46c10.93,0,18.38-1.25,22.36-3.76,3.97-2.5,5.96-7.22,5.96-14.16,0-8.66-1.48-14.31-4.43-16.93-2.95-2.62-9.27-3.93-18.96-3.93H26.46v38.78Z"/><path class="c" d="m167.14,51.77c16.46,0,27.14,2.15,32.05,6.46,4.91,4.31,7.36,13.68,7.36,28.1s-2.45,23.79-7.36,28.1c-4.91,4.31-15.59,6.46-32.05,6.46s-27.05-2.15-31.96-6.46c-4.91-4.31-7.36-13.67-7.36-28.1s2.45-23.79,7.36-28.1c4.91-4.31,15.56-6.46,31.96-6.46Zm0,8.15c-11.55,0-18.71,1.42-21.48,4.25-2.76,2.83-4.15,10.22-4.15,22.16s1.38,19.33,4.15,22.16c2.76,2.83,9.92,4.25,21.48,4.25s18.8-1.42,21.57-4.25c2.76-2.83,4.15-10.22,4.15-22.16s-1.38-19.33-4.15-22.16c-2.76-2.83-9.95-4.25-21.57-4.25Z"/><path class="c" d="m263.67,51.77c16.46,0,27.14,2.15,32.05,6.46,4.91,4.31,7.36,13.68,7.36,28.1s-2.46,23.79-7.36,28.1c-4.91,4.31-15.59,6.46-32.05,6.46s-27.05-2.15-31.96-6.46c-4.91-4.31-7.36-13.67-7.36-28.1s2.45-23.79,7.36-28.1c4.91-4.31,15.56-6.46,31.96-6.46Zm0,8.15c-11.55,0-18.71,1.42-21.48,4.25-2.76,2.83-4.15,10.22-4.15,22.16s1.38,19.33,4.15,22.16c2.76,2.83,9.92,4.25,21.48,4.25s18.8-1.42,21.57-4.25c2.76-2.83,4.15-10.22,4.15-22.16s-1.38-19.33-4.15-22.16c-2.76-2.83-9.95-4.25-21.57-4.25Z"/><path class="c" d="m392.42,70.32h-13.04c0-4.68-1.26-7.59-3.77-8.71s-8.99-1.69-19.43-1.69c-9.69,0-15.84.6-18.45,1.79s-3.91,4.06-3.91,8.61c0,6.88,4.38,10.49,13.14,10.82l10.53.42,13.32.49c16.15.61,24.22,6.98,24.22,19.11,0,7.54-2.67,12.72-8.01,15.53-5.34,2.81-15.13,4.21-29.35,4.21s-24.64-1.33-30.14-4c-5.5-2.67-8.25-7.56-8.25-14.68l.09-3.65h13.51l.09,3.16c0,4.4,1.49,7.34,4.47,8.82,2.98,1.47,8.85,2.21,17.61,2.21,10.75,0,17.81-.77,21.2-2.32,3.38-1.55,5.08-4.78,5.08-9.69,0-7.07-4.25-10.61-12.76-10.61-19.81,0-32.84-1.26-39.08-3.79s-9.36-7.77-9.36-15.74c0-7.54,2.47-12.56,7.41-15.07,4.94-2.5,14.77-3.76,29.49-3.76,23.6,0,35.4,5.36,35.4,16.09v2.46Z"/></svg>