<svg id="Layer_1" data-name="Layer 1" xmlns="http://www.w3.org/2000/svg" width="200" height="43.19" viewBox="0 0 200 43.19"><defs><style>.cls-1{fill:#4764af;}.cls-2{fill:#263769;}.cls-3{fill:#b9b6c2;}</style></defs><title>responsible-business-alliance-logo</title><path class="cls-1" d="M16.1,36.92a16.2,16.2,0,0,1-2.34-2.4A5.18,5.18,0,0,1,11.93,34l-1.86-1a18.44,18.44,0,0,0,7.62,7.72l-1.07-2.07a5.16,5.16,0,0,1-.53-1.76" transform="translate(-4.41 -3.02)"/><path class="cls-1" d="M13.69,14.7a16.2,16.2,0,0,1,2.4-2.34,5.18,5.18,0,0,1,.54-1.82l1-1.86A18.44,18.44,0,0,0,9.86,16.3l2.07-1.07a5.16,5.16,0,0,1,1.76-.53" transform="translate(-4.41 -3.02)"/><path class="cls-1" d="M38.31,34.53a16.2,16.2,0,0,1-2.4,2.34,5.18,5.18,0,0,1-.54,1.82l-1,1.86a18.44,18.44,0,0,0,7.72-7.62L40.07,34a5.16,5.16,0,0,1-1.76.53" transform="translate(-4.41 -3.02)"/><path class="cls-1" d="M35.9,12.3a16.2,16.2,0,0,1,2.34,2.4,5.18,5.18,0,0,1,1.82.54l1.86,1A18.44,18.44,0,0,0,34.3,8.47l1.07,2.07a5.16,5.16,0,0,1,.53,1.76" transform="translate(-4.41 -3.02)"/><path class="cls-2" d="M26,11.93a12.63,12.63,0,0,1,5.32,1.17.56.56,0,0,0,0-.46L26.51,3.33a.57.57,0,0,0-1,0L20.7,12.64a.56.56,0,0,0,0,.46A12.63,12.63,0,0,1,26,11.93" transform="translate(-4.41 -3.02)"/><path class="cls-1" d="M47.28,24.1l-4-2-2-1h0L38,19.31a.57.57,0,0,0-.26-.06.56.56,0,0,0-.2,0,12.68,12.68,0,0,1,0,10.65.55.55,0,0,0,.46,0l9.31-4.79a.57.57,0,0,0,0-1" transform="translate(-4.41 -3.02)"/><path class="cls-1" d="M26,37.29a12.63,12.63,0,0,1-5.32-1.17.56.56,0,0,0,0,.46l1.93,3.75h0l2.86,5.56a.57.57,0,0,0,1,0l4.79-9.31a.56.56,0,0,0,0-.46A12.63,12.63,0,0,1,26,37.29" transform="translate(-4.41 -3.02)"/><path class="cls-1" d="M9.73,27.7,14,29.91a.55.55,0,0,0,.46,0,12.68,12.68,0,0,1,0-10.65.55.55,0,0,0-.46,0L4.72,24.1a.57.57,0,0,0,0,1l5,2.58" transform="translate(-4.41 -3.02)"/><path class="cls-2" d="M83.77,37.89h.69l1.88,4.64h-.7l-.5-1.21H83l-.5,1.21h-.66l2-4.64m-.58,2.91h1.76l-.86-2.28Z" transform="translate(-4.41 -3.02)"/><path class="cls-2" d="M89,37.9h.6V42c0,.07,0,.35,0,.51H89V42a.92.92,0,0,1-.29.34,1.47,1.47,0,0,1-.8.24c-.43,0-1.39-.23-1.39-1.64,0-1.23.7-1.76,1.46-1.76a1,1,0,0,1,1,.55V37.9M88.73,40a.88.88,0,0,0-.71-.33c-.89,0-.89,1.07-.89,1.29,0,.57.15,1.23.89,1.23,1,0,1-1,1-1.3A1.38,1.38,0,0,0,88.73,40Z" transform="translate(-4.41 -3.02)"/><polyline class="cls-2" points="85.59 36.29 86.27 36.29 87.3 38.85 88.3 36.29 88.97 36.29 87.56 39.52 86.94 39.52 85.59 36.29"/><path class="cls-2" d="M95.72,42.54a1.75,1.75,0,0,1-.06-.48,1,1,0,0,1-1,.59c-.74,0-1.14-.42-1.14-1a1.06,1.06,0,0,1,.57-.95,2.52,2.52,0,0,1,1.12-.21l.44,0c0-.4,0-.57-.12-.71a.74.74,0,0,0-.56-.21c-.61,0-.64.42-.65.55h-.6a1,1,0,0,1,.23-.61,1.46,1.46,0,0,1,1-.35,1.3,1.3,0,0,1,1.14.48,1,1,0,0,1,.11.5l0,1.54a7.54,7.54,0,0,0,.05.81h-.55m-.42-1.59c-.24,0-1.16,0-1.16.66,0,.21.13.56.67.56a.77.77,0,0,0,.69-.35,1.52,1.52,0,0,0,.15-.85Z" transform="translate(-4.41 -3.02)"/><path class="cls-2" d="M97.08,39.68v-.37h.6v.52a1.05,1.05,0,0,1,1-.59,1.08,1.08,0,0,1,1.17,1.1v2.19h-.62V40.49a.73.73,0,0,0-.17-.55.83.83,0,0,0-.57-.22.86.86,0,0,0-.84,1v1.86h-.6V39.68" transform="translate(-4.41 -3.02)"/><path class="cls-2" d="M102.63,40.34a.64.64,0,0,0-.64-.68c-.84,0-.84,1-.84,1.22,0,.66.16,1.28.8,1.28a.67.67,0,0,0,.7-.7h.61A1.22,1.22,0,0,1,102,42.62a1.45,1.45,0,0,1-1.06-.42,1.75,1.75,0,0,1-.39-1.23c0-1.34.82-1.74,1.47-1.74a1.31,1.31,0,0,1,1,.4,1.12,1.12,0,0,1,.27.72h-.61" transform="translate(-4.41 -3.02)"/><path class="cls-2" d="M103.78,37.91h.73v.66h-.73Zm.06,1.4h.6v3.23h-.6Z" transform="translate(-4.41 -3.02)"/><path class="cls-2" d="M105.33,39.68v-.37h.6v.52a1.05,1.05,0,0,1,1-.59,1.08,1.08,0,0,1,1.17,1.1v2.19h-.62V40.49a.73.73,0,0,0-.17-.55.83.83,0,0,0-.57-.22.86.86,0,0,0-.84,1v1.86h-.6V39.68" transform="translate(-4.41 -3.02)"/><path class="cls-2" d="M109.6,42.79c0,.36.18.63.75.63.84,0,.86-.61.86-1.49a1.12,1.12,0,0,1-1.06.55,1.24,1.24,0,0,1-1-.4,1.81,1.81,0,0,1-.37-1.19,1.43,1.43,0,0,1,1.43-1.63,1.13,1.13,0,0,1,1,.49v-.44h.59v2.6a3,3,0,0,1-.15,1.34,1.42,1.42,0,0,1-1.34.58c-1.29,0-1.33-.6-1.36-1h.64M111,41.71a1.29,1.29,0,0,0,.22-.93A1.07,1.07,0,0,0,111,40a1,1,0,0,0-.69-.28c-.77,0-.87.77-.87,1.18s.15,1.15.89,1.15A.81.81,0,0,0,111,41.71Z" transform="translate(-4.41 -3.02)"/><path class="cls-2" d="M114.81,41.18c0,.32.05.92,1.12.92s1.09-.6,1.09-.83c0-.52-.42-.62-1.07-.78a4.12,4.12,0,0,1-1.26-.41,1,1,0,0,1-.48-.91c0-.95.89-1.36,1.77-1.36a1.81,1.81,0,0,1,1.31.46,1.19,1.19,0,0,1,.28.79h-.67c0-.58-.52-.71-1-.71-.64,0-1,.29-1,.75s.27.55.84.69a4.38,4.38,0,0,1,1.5.49,1.06,1.06,0,0,1,.46.93c0,.82-.64,1.45-1.83,1.45a1.87,1.87,0,0,1-1.44-.53,1.45,1.45,0,0,1-.27-.94h.67" transform="translate(-4.41 -3.02)"/><path class="cls-2" d="M118.94,39.31v2.08c0,.31.07.71.69.71a.87.87,0,0,0,.76-.36,1,1,0,0,0,.13-.6V39.31h.62v2.62c0,.06,0,.42,0,.6h-.63V42a1,1,0,0,1-1,.59,1,1,0,0,1-1.17-1.09V39.31h.62" transform="translate(-4.41 -3.02)"/><path class="cls-2" d="M122.44,41.58c0,.24.12.59.71.59a.66.66,0,0,0,.57-.21.5.5,0,0,0,.1-.3c0-.31-.22-.37-.71-.48-.68-.15-1.24-.29-1.24-1s.51-1,1.26-1a1.3,1.3,0,0,1,1.16.5,1,1,0,0,1,.08.47h-.62c0-.49-.41-.53-.62-.53s-.66,0-.66.46c0,.3.29.37.46.41.89.21,1.09.26,1.28.44a.8.8,0,0,1,.24.6,1,1,0,0,1-.44.82,1.82,1.82,0,0,1-1,.22c-.66,0-1.27-.27-1.26-1h.64" transform="translate(-4.41 -3.02)"/><path class="cls-2" d="M124.71,39.3h.57v-.68l.6-.19v.87h.72v.44h-.72v1.94c0,.16,0,.43.43.43a1.31,1.31,0,0,0,.29,0v.47a2.92,2.92,0,0,1-.5,0c-.55,0-.82-.16-.82-.69V39.74h-.57V39.3" transform="translate(-4.41 -3.02)"/><path class="cls-2" d="M129.17,42.54a1.73,1.73,0,0,1-.06-.48,1,1,0,0,1-1,.59c-.74,0-1.14-.42-1.14-1a1.06,1.06,0,0,1,.57-.95,2.51,2.51,0,0,1,1.12-.21l.44,0c0-.4,0-.57-.12-.71a.74.74,0,0,0-.56-.21c-.61,0-.64.42-.65.55h-.6a1,1,0,0,1,.23-.61,1.46,1.46,0,0,1,1-.35,1.3,1.3,0,0,1,1.14.48,1,1,0,0,1,.11.5l0,1.54a7.45,7.45,0,0,0,.05.81h-.55m-.42-1.59c-.24,0-1.16,0-1.16.66,0,.21.13.56.67.56a.77.77,0,0,0,.69-.35,1.52,1.52,0,0,0,.15-.85Z" transform="translate(-4.41 -3.02)"/><path class="cls-2" d="M130.46,37.91h.73v.66h-.73Zm.06,1.4h.6v3.23h-.6Z" transform="translate(-4.41 -3.02)"/><path class="cls-2" d="M132,39.68v-.37h.6v.52a1.05,1.05,0,0,1,1-.59,1.08,1.08,0,0,1,1.17,1.1v2.19h-.62V40.49a.73.73,0,0,0-.17-.55.83.83,0,0,0-.57-.22.86.86,0,0,0-.84,1v1.86H132V39.68" transform="translate(-4.41 -3.02)"/><path class="cls-2" d="M137.65,42.54a1.73,1.73,0,0,1-.06-.48,1,1,0,0,1-1,.59c-.74,0-1.14-.42-1.14-1a1.06,1.06,0,0,1,.57-.95,2.52,2.52,0,0,1,1.12-.21l.44,0c0-.4,0-.57-.12-.71a.74.74,0,0,0-.56-.21c-.61,0-.64.42-.65.55h-.6a1,1,0,0,1,.23-.61,1.46,1.46,0,0,1,1-.35,1.3,1.3,0,0,1,1.14.48,1,1,0,0,1,.11.5l0,1.54a7.51,7.51,0,0,0,.05.81h-.55m-.42-1.59c-.24,0-1.16,0-1.16.66,0,.21.13.56.67.56a.77.77,0,0,0,.69-.35,1.52,1.52,0,0,0,.15-.85Z" transform="translate(-4.41 -3.02)"/><path class="cls-2" d="M139.6,39.78a1.08,1.08,0,0,1,1.05-.55,1.32,1.32,0,0,1,1,.41,1.69,1.69,0,0,1,.38,1.22,1.86,1.86,0,0,1-.31,1.18,1.36,1.36,0,0,1-1.13.55,1.27,1.27,0,0,1-.72-.21,1,1,0,0,1-.31-.33v.49H139V37.89h.6v1.88m.91-.14c-.93,0-.93,1.08-.93,1.29s0,1.22.9,1.22c.75,0,.93-.73.93-1.25C141.42,40.57,141.35,39.64,140.51,39.64Z" transform="translate(-4.41 -3.02)"/><path class="cls-2" d="M142.65,37.91h.73v.66h-.73Zm.06,1.4h.6v3.23h-.6Z" transform="translate(-4.41 -3.02)"/><rect class="cls-2" x="139.79" y="34.88" width="0.6" height="4.64"/><path class="cls-2" d="M145.62,37.91h.73v.66h-.73Zm.06,1.4h.6v3.23h-.6Z" transform="translate(-4.41 -3.02)"/><path class="cls-2" d="M146.76,39.3h.57v-.68l.6-.19v.87h.72v.44h-.72v1.94c0,.16,0,.43.43.43a1.31,1.31,0,0,0,.29,0v.47a2.92,2.92,0,0,1-.5,0c-.55,0-.82-.16-.82-.69V39.74h-.57V39.3" transform="translate(-4.41 -3.02)"/><polyline class="cls-2" points="146.46 39.54 145.99 40.74 145.37 40.74 145.86 39.51 144.51 36.29 145.19 36.29 146.2 38.84 147.23 36.29 147.89 36.29 146.46 39.54"/><path class="cls-2" d="M157.53,39.05c-.07-.43-.42-.73-1-.73a1.34,1.34,0,0,0-1,.39,2.23,2.23,0,0,0-.5,1.49,2.43,2.43,0,0,0,.42,1.46,1.59,1.59,0,0,0,1.23.46,3.27,3.27,0,0,0,1-.15V40.6h-1.06v-.53h1.7v2.29a5.07,5.07,0,0,1-1.65.28,2.21,2.21,0,0,1-1.68-.58,2.48,2.48,0,0,1-.65-1.77,2.59,2.59,0,0,1,1-2.15,2.41,2.41,0,0,1,1.29-.33,1.83,1.83,0,0,1,1.37.5,1.07,1.07,0,0,1,.31.74h-.7" transform="translate(-4.41 -3.02)"/><rect class="cls-2" x="154.73" y="34.88" width="0.6" height="4.64"/><path class="cls-2" d="M162.06,39.23a1.52,1.52,0,0,1,1.58,1.69A1.57,1.57,0,0,1,162,42.65,1.52,1.52,0,0,1,160.42,41a1.56,1.56,0,0,1,1.64-1.74m0,3c.46,0,1-.33,1-1.3,0-.8-.37-1.23-.94-1.23-.39,0-1,.24-1,1.25C161.05,41.59,161.34,42.2,162,42.2Z" transform="translate(-4.41 -3.02)"/><path class="cls-2" d="M164.94,39.78a1.08,1.08,0,0,1,1.05-.55,1.32,1.32,0,0,1,1,.41,1.69,1.69,0,0,1,.38,1.22,1.86,1.86,0,0,1-.31,1.18,1.36,1.36,0,0,1-1.13.55,1.27,1.27,0,0,1-.72-.21,1,1,0,0,1-.31-.33v.49h-.58V37.89h.6v1.88m.91-.14c-.93,0-.93,1.08-.93,1.29s0,1.22.9,1.22c.75,0,.93-.73.93-1.25C166.76,40.57,166.7,39.64,165.85,39.64Z" transform="translate(-4.41 -3.02)"/><path class="cls-2" d="M170,42.54a1.73,1.73,0,0,1-.06-.48,1,1,0,0,1-1,.59c-.74,0-1.14-.42-1.14-1a1.06,1.06,0,0,1,.57-.95,2.52,2.52,0,0,1,1.12-.21l.44,0c0-.4,0-.57-.12-.71a.74.74,0,0,0-.56-.21c-.61,0-.64.42-.65.55H168a1,1,0,0,1,.23-.61,1.46,1.46,0,0,1,1-.35,1.3,1.3,0,0,1,1.14.48,1,1,0,0,1,.11.5l0,1.54a7.51,7.51,0,0,0,.05.81H170m-.42-1.59c-.24,0-1.16,0-1.16.66,0,.21.13.56.67.56a.77.77,0,0,0,.69-.35A1.52,1.52,0,0,0,170,41Z" transform="translate(-4.41 -3.02)"/><rect class="cls-2" x="166.97" y="34.88" width="0.6" height="4.64"/><rect class="cls-2" x="168.45" y="34.88" width="0.6" height="4.64"/><polyline class="cls-2" points="171.47 39.54 171.01 40.74 170.39 40.74 170.88 39.51 169.53 36.29 170.21 36.29 171.22 38.84 172.25 36.29 172.91 36.29 171.47 39.54"/><polyline class="cls-2" points="50.32 31.23 199.7 31.23 200 30.82 50.32 30.82 50.32 31.23"/><path class="cls-2" d="M56.42,15.58h1.81c.86,0,1.28-.75,1.28-1.57a1.28,1.28,0,0,0-1.27-1.44H56.42v3m0,1V21h-1.2V11.52h3.26a2.13,2.13,0,0,1,2.26,2.35A2,2,0,0,1,59,16v0c1.09.17,1.48.54,1.54,2.43A14.43,14.43,0,0,0,60.89,21H59.63a10.84,10.84,0,0,1-.37-3.14,1.25,1.25,0,0,0-1.43-1.2Z" transform="translate(-4.41 -3.02)"/><path class="cls-2" d="M65.7,17.2c0-1.92-.54-2.16-1.32-2.16s-1.24.33-1.26,2.16H65.7M63.12,18c0,1.84.5,2.21,1.33,2.21A1.19,1.19,0,0,0,65.61,19h1.18a2,2,0,0,1-2.3,2.13c-1.4,0-2.51-.42-2.51-3.34,0-1.94.22-3.53,2.51-3.53,1.88,0,2.36,1,2.36,3.22V18Z" transform="translate(-4.41 -3.02)"/><path class="cls-2" d="M70.22,21.1c-1.43,0-2.32-.63-2.28-2.15h1.22c0,.38,0,1.27,1.1,1.27a1,1,0,0,0,1.14-1C71.4,18,68.1,18,68.1,16c0-.69.42-1.81,2.28-1.81,1.18,0,2.18.56,2.09,1.87H71.28a.93.93,0,0,0-1-1.06.9.9,0,0,0-1,.89c0,1.16,3.3,1.14,3.3,3.15,0,1.45-1,2-2.3,2" transform="translate(-4.41 -3.02)"/><path class="cls-2" d="M77.42,17.55c0-1,0-2.45-1.35-2.45s-1.2,1.83-1.2,2.84.05,2.28,1.24,2.28,1.31-.9,1.31-2.67m-2.55-2.41h0a1.64,1.64,0,0,1,1.52-.92c1.06,0,2.13.42,2.13,3.32,0,1.65-.05,3.55-2.19,3.55a1.67,1.67,0,0,1-1.45-.8h0v3.17H73.79V14.36h1.07Z" transform="translate(-4.41 -3.02)"/><path class="cls-2" d="M83.61,17.3c0-1.81-.56-2.2-1.39-2.2s-1.39.39-1.39,2.2c0,2.15.27,2.92,1.39,2.92s1.39-.77,1.39-2.92m-3.9.46c0-1.94.22-3.53,2.51-3.53s2.51,1.6,2.51,3.53c0,2.92-1.11,3.34-2.51,3.34s-2.51-.42-2.51-3.34" transform="translate(-4.41 -3.02)"/><path class="cls-2" d="M89.65,21V16.39c0-.71-.25-1.28-1.16-1.28-1.18,0-1.35,1-1.35,1.95V21H86.06V15.73c0-.46,0-.92-.07-1.37h1.14v.85h.05a1.74,1.74,0,0,1,1.77-1c1.41,0,1.77.85,1.77,2.16V21H89.65" transform="translate(-4.41 -3.02)"/><path class="cls-2" d="M94.18,21.1c-1.43,0-2.32-.63-2.28-2.15h1.22c0,.38,0,1.27,1.1,1.27a1,1,0,0,0,1.14-1c0-1.18-3.3-1.2-3.3-3.18,0-.69.42-1.81,2.28-1.81,1.18,0,2.19.56,2.09,1.87H95.24a.93.93,0,0,0-1-1.06.9.9,0,0,0-1,.89c0,1.16,3.3,1.14,3.3,3.15,0,1.45-1,2-2.3,2" transform="translate(-4.41 -3.02)"/><path class="cls-2" d="M97.69,14.36h1.07V21H97.69Zm-.07-2.84h1.2v1.15h-1.2Z" transform="translate(-4.41 -3.02)"/><path class="cls-2" d="M102.57,20.22c1.35,0,1.35-1.44,1.35-2.43,0-1.77-.16-2.68-1.31-2.68s-1.24,1.41-1.24,2.29-.12,2.83,1.2,2.83m-1.2.75H100.3V11.52h1.07V15h0a1.68,1.68,0,0,1,1.45-.8c2.13,0,2.19,1.9,2.19,3.55,0,2.9-1.07,3.32-2.13,3.32a1.64,1.64,0,0,1-1.52-.92h0Z" transform="translate(-4.41 -3.02)"/><rect class="cls-2" x="101.99" y="8.5" width="1.07" height="9.45"/><path class="cls-2" d="M112.56,17.2c0-1.92-.54-2.16-1.32-2.16S110,15.37,110,17.2h2.58M110,18c0,1.84.5,2.21,1.33,2.21A1.19,1.19,0,0,0,112.47,19h1.18a2,2,0,0,1-2.3,2.13c-1.4,0-2.51-.42-2.51-3.34,0-1.94.22-3.53,2.51-3.53,1.88,0,2.36,1,2.36,3.22V18Z" transform="translate(-4.41 -3.02)"/><path class="cls-2" d="M119.17,19.92h1.7a1.6,1.6,0,0,0,1.74-1.61c0-1.5-.93-1.77-2.16-1.77h-1.28v3.38m0-4.42h1.75a1.32,1.32,0,0,0,1.4-1.5,1.33,1.33,0,0,0-1.45-1.43h-1.7ZM118,21V11.52H121a2.14,2.14,0,0,1,2.11,1,2.53,2.53,0,0,1,.38,1.26A2,2,0,0,1,121.9,16V16a2,2,0,0,1,1.94,2.26c0,2.42-1.77,2.66-2.84,2.66Z" transform="translate(-4.41 -3.02)"/><path class="cls-2" d="M128.83,14.36h1.07v5.23c0,.46,0,.92.07,1.37h-1.14v-.8h0a1.9,1.9,0,0,1-1.67.93,1.56,1.56,0,0,1-1.78-1.7v-5h1.07v4.58c0,.8.37,1.33,1.13,1.33a1.36,1.36,0,0,0,1.3-1.53V14.36" transform="translate(-4.41 -3.02)"/><path class="cls-2" d="M133.4,21.1c-1.43,0-2.32-.63-2.28-2.15h1.22c0,.38,0,1.27,1.1,1.27.64,0,1.14-.33,1.14-1,0-1.18-3.3-1.2-3.3-3.18,0-.69.42-1.81,2.28-1.81,1.18,0,2.18.56,2.09,1.87h-1.19a.93.93,0,0,0-1-1.06.9.9,0,0,0-1,.89c0,1.16,3.3,1.14,3.3,3.15,0,1.45-1,2-2.3,2" transform="translate(-4.41 -3.02)"/><path class="cls-2" d="M136.9,14.36H138V21H136.9Zm-.07-2.84H138v1.15h-1.2Z" transform="translate(-4.41 -3.02)"/><path class="cls-2" d="M143.07,21V16.39c0-.71-.25-1.28-1.16-1.28-1.18,0-1.35,1-1.35,1.95V21h-1.07V15.73c0-.46,0-.92-.07-1.37h1.14v.85h.05a1.74,1.74,0,0,1,1.77-1c1.41,0,1.77.85,1.77,2.16V21h-1.07" transform="translate(-4.41 -3.02)"/><path class="cls-2" d="M149.24,17.2c0-1.92-.54-2.16-1.32-2.16s-1.24.33-1.26,2.16h2.58m-2.58.81c0,1.84.5,2.21,1.33,2.21A1.19,1.19,0,0,0,149.15,19h1.18A2,2,0,0,1,148,21.1c-1.4,0-2.51-.42-2.51-3.34,0-1.94.22-3.53,2.51-3.53,1.88,0,2.36,1,2.36,3.22V18Z" transform="translate(-4.41 -3.02)"/><path class="cls-2" d="M153.76,21.1c-1.43,0-2.32-.63-2.28-2.15h1.22c0,.38,0,1.27,1.1,1.27.64,0,1.14-.33,1.14-1,0-1.18-3.3-1.2-3.3-3.18,0-.69.42-1.81,2.28-1.81,1.18,0,2.19.56,2.09,1.87h-1.19a.93.93,0,0,0-1-1.06.9.9,0,0,0-1,.89c0,1.16,3.3,1.14,3.3,3.15,0,1.45-1,2-2.3,2" transform="translate(-4.41 -3.02)"/><path class="cls-2" d="M159.36,21.1c-1.43,0-2.32-.63-2.28-2.15h1.22c0,.38,0,1.27,1.1,1.27.64,0,1.14-.33,1.14-1,0-1.18-3.3-1.2-3.3-3.18,0-.69.42-1.81,2.28-1.81,1.18,0,2.18.56,2.09,1.87h-1.19a.93.93,0,0,0-1-1.06.9.9,0,0,0-1,.89c0,1.16,3.3,1.14,3.3,3.15,0,1.45-1,2-2.3,2" transform="translate(-4.41 -3.02)"/><path class="cls-2" d="M168.45,12.63h0l-1.48,5h3l-1.52-5m-.73-1.11h1.53L172.32,21H171l-.68-2.25h-3.65L165.94,21h-1.22Z" transform="translate(-4.41 -3.02)"/><rect class="cls-2" x="169.02" y="8.5" width="1.07" height="9.45"/><rect class="cls-2" x="171.57" y="8.5" width="1.07" height="9.45"/><path class="cls-2" d="M178.54,14.36h1.07V21h-1.07Zm-.07-2.84h1.2v1.15h-1.2Z" transform="translate(-4.41 -3.02)"/><path class="cls-2" d="M182,19c0,.64.31,1.22,1,1.22s1.47-.41,1.36-2.54c-1,0-2.39-.08-2.39,1.32m2.42,1h0a1.62,1.62,0,0,1-1.66,1.09c-1.4,0-1.81-.9-1.81-2.17,0-2,2-2.09,3.47-2.05,0-.88,0-1.83-1.11-1.83a1,1,0,0,0-1,1.18h-1.16c.05-1.48.84-2,2.24-2,1.7,0,2.15.88,2.15,2V19.4a10.51,10.51,0,0,0,.13,1.57h-1.18Z" transform="translate(-4.41 -3.02)"/><path class="cls-2" d="M190.65,21V16.39c0-.71-.25-1.28-1.16-1.28-1.18,0-1.35,1-1.35,1.95V21h-1.07V15.73c0-.46,0-.92-.07-1.37h1.14v.85h.05a1.74,1.74,0,0,1,1.77-1c1.41,0,1.77.85,1.77,2.16V21h-1.07" transform="translate(-4.41 -3.02)"/><path class="cls-2" d="M196.58,16.48c0-1.09-.51-1.37-.92-1.37-.82,0-1.39.39-1.39,2.2,0,2.15.27,2.92,1.39,2.92.25,0,1-.26,1-1.45h1.13a2.08,2.08,0,0,1-2.08,2.33c-1.4,0-2.51-.42-2.51-3.34,0-1.94.22-3.53,2.51-3.53a1.89,1.89,0,0,1,2,2.25h-1.11" transform="translate(-4.41 -3.02)"/><path class="cls-2" d="M202.77,17.2c0-1.92-.54-2.16-1.32-2.16s-1.24.33-1.26,2.16h2.58m-2.58.81c0,1.84.5,2.21,1.34,2.21A1.19,1.19,0,0,0,202.68,19h1.18a2,2,0,0,1-2.3,2.13c-1.4,0-2.51-.42-2.51-3.34,0-1.94.22-3.53,2.51-3.53,1.88,0,2.35,1,2.35,3.22V18Z" transform="translate(-4.41 -3.02)"/><polyline class="cls-3" points="50.8 22.7 53.56 22.7 53.56 23.24 51.45 23.24 51.45 24.69 53.44 24.69 53.44 25.23 51.45 25.23 51.45 27.34 50.8 27.34 50.8 22.7"/><path class="cls-3" d="M59.93,27a1.52,1.52,0,0,1,1.58,1.69,1.57,1.57,0,0,1-1.63,1.73,1.52,1.52,0,0,1-1.59-1.68A1.56,1.56,0,0,1,59.93,27m0,3c.46,0,1-.33,1-1.3,0-.8-.37-1.23-.94-1.23-.39,0-1,.24-1,1.25C58.93,29.41,59.21,30,59.9,30Z" transform="translate(-4.41 -3.02)"/><path class="cls-3" d="M62.21,27.79c0-.22,0-.44,0-.66h.61v.62a.87.87,0,0,1,.77-.64,1.94,1.94,0,0,1,.42,0v.59l-.12,0H63.7c-.71,0-.88.42-.88,1v1.72h-.61V27.79" transform="translate(-4.41 -3.02)"/><path class="cls-3" d="M64.48,27.56v-.43h.61v.47a1.1,1.1,0,0,1,1-.55,1,1,0,0,1,1.05.6,1.16,1.16,0,0,1,1.09-.6,1.07,1.07,0,0,1,1.18,1.14v2.17h-.61V28.29a.8.8,0,0,0-.11-.49.73.73,0,0,0-.62-.28.83.83,0,0,0-.69.34,1.33,1.33,0,0,0-.14.69v1.81h-.61V28.22a.65.65,0,0,0-.71-.71.87.87,0,0,0-.71.35,1.13,1.13,0,0,0-.14.66v1.83h-.61v-2.8" transform="translate(-4.41 -3.02)"/><path class="cls-3" d="M70.7,28.85c0,.67.26,1.16.93,1.16a.7.7,0,0,0,.76-.67H73a1.1,1.1,0,0,1-.28.68,1.4,1.4,0,0,1-1.11.43c-1,0-1.5-.63-1.5-1.65a1.67,1.67,0,0,1,.64-1.52,1.55,1.55,0,0,1,.88-.24c1.45,0,1.41,1.28,1.4,1.81H70.7m1.7-.42c0-.31-.05-1-.8-1a.87.87,0,0,0-.88,1Z" transform="translate(-4.41 -3.02)"/><path class="cls-3" d="M73.71,27.79c0-.22,0-.44,0-.66h.61v.62a.87.87,0,0,1,.77-.64,1.94,1.94,0,0,1,.42,0v.59l-.12,0H75.2c-.71,0-.88.42-.88,1v1.72h-.61V27.79" transform="translate(-4.41 -3.02)"/><rect class="cls-3" x="71.57" y="22.7" width="0.6" height="4.64"/><polyline class="cls-3" points="74.59 27.36 74.13 28.56 73.51 28.56 74 27.33 72.65 24.11 73.33 24.11 74.34 26.66 75.37 24.11 76.03 24.11 74.59 27.36"/><path class="cls-3" d="M82,27.12h.57v-.68l.6-.19v.87h.72v.44H83.2V29.5c0,.16,0,.43.43.43a1.34,1.34,0,0,0,.29,0v.47a3,3,0,0,1-.5,0c-.55,0-.82-.16-.82-.69V27.56H82v-.44" transform="translate(-4.41 -3.02)"/><path class="cls-3" d="M84.43,25.72H85v1.88a1.18,1.18,0,0,1,1-.53,1.11,1.11,0,0,1,1,.51,1.56,1.56,0,0,1,.11.75v2h-.62V28.45c0-.29,0-.91-.69-.91a.83.83,0,0,0-.76.43,1.53,1.53,0,0,0-.1.68v1.71h-.61V25.72" transform="translate(-4.41 -3.02)"/><path class="cls-3" d="M88.49,28.85c0,.67.26,1.16.93,1.16a.7.7,0,0,0,.76-.67h.6a1.09,1.09,0,0,1-.28.68,1.4,1.4,0,0,1-1.11.43c-1,0-1.5-.63-1.5-1.65a1.67,1.67,0,0,1,.64-1.52,1.55,1.55,0,0,1,.88-.24c1.45,0,1.41,1.28,1.4,1.81H88.49m1.7-.42c0-.31-.05-1-.8-1a.87.87,0,0,0-.88,1Z" transform="translate(-4.41 -3.02)"/><polyline class="cls-3" points="88.61 22.7 91.53 22.7 91.53 23.24 89.26 23.24 89.26 24.69 91.42 24.69 91.42 25.23 89.26 25.23 89.26 26.77 91.58 26.77 91.58 27.34 88.61 27.34 88.61 22.7"/><rect class="cls-3" x="92.26" y="22.7" width="0.6" height="4.64"/><path class="cls-3" d="M98.57,28.85c0,.67.26,1.16.93,1.16a.7.7,0,0,0,.76-.67h.6a1.09,1.09,0,0,1-.28.68,1.4,1.4,0,0,1-1.11.43c-1,0-1.5-.63-1.5-1.65a1.67,1.67,0,0,1,.64-1.52,1.55,1.55,0,0,1,.88-.24c1.45,0,1.41,1.28,1.4,1.81H98.57m1.7-.42c0-.31-.05-1-.8-1a.87.87,0,0,0-.88,1Z" transform="translate(-4.41 -3.02)"/><path class="cls-3" d="M103.46,28.17a.64.64,0,0,0-.64-.67c-.84,0-.84,1-.84,1.22,0,.66.16,1.28.8,1.28a.67.67,0,0,0,.7-.7h.61a1.22,1.22,0,0,1-1.31,1.16,1.45,1.45,0,0,1-1.06-.42,1.75,1.75,0,0,1-.39-1.23c0-1.34.82-1.74,1.47-1.74a1.31,1.31,0,0,1,1,.4,1.12,1.12,0,0,1,.27.72h-.61" transform="translate(-4.41 -3.02)"/><path class="cls-3" d="M104.29,27.12h.57v-.68l.6-.19v.87h.72v.44h-.72V29.5c0,.16,0,.43.43.43a1.34,1.34,0,0,0,.29,0v.47a3,3,0,0,1-.5,0c-.55,0-.82-.16-.82-.69V27.56h-.57v-.44" transform="translate(-4.41 -3.02)"/><path class="cls-3" d="M106.72,27.79c0-.22,0-.44,0-.66h.61v.62a.87.87,0,0,1,.77-.64,2,2,0,0,1,.42,0v.59l-.12,0h-.17c-.71,0-.88.42-.88,1v1.72h-.61V27.79" transform="translate(-4.41 -3.02)"/><path class="cls-3" d="M110.39,27A1.52,1.52,0,0,1,112,28.74a1.57,1.57,0,0,1-1.63,1.73,1.52,1.52,0,0,1-1.59-1.68A1.56,1.56,0,0,1,110.39,27m0,3c.46,0,1-.33,1-1.3,0-.8-.37-1.23-.94-1.23-.39,0-1,.24-1,1.25C109.38,29.41,109.67,30,110.35,30Z" transform="translate(-4.41 -3.02)"/><path class="cls-3" d="M112.67,27.5v-.37h.6v.52a1.05,1.05,0,0,1,1-.59,1.08,1.08,0,0,1,1.17,1.1v2.19h-.62V28.31a.73.73,0,0,0-.17-.55.83.83,0,0,0-.57-.22.86.86,0,0,0-.84,1v1.86h-.6V27.5" transform="translate(-4.41 -3.02)"/><path class="cls-3" d="M116.25,25.73H117v.66h-.73Zm.06,1.4h.6v3.23h-.6Z" transform="translate(-4.41 -3.02)"/><path class="cls-3" d="M119.7,28.17a.64.64,0,0,0-.64-.67c-.84,0-.84,1-.84,1.22,0,.66.16,1.28.8,1.28a.67.67,0,0,0,.7-.7h.61A1.22,1.22,0,0,1,119,30.44,1.46,1.46,0,0,1,118,30a1.75,1.75,0,0,1-.39-1.23c0-1.34.82-1.74,1.47-1.74a1.31,1.31,0,0,1,1,.4,1.12,1.12,0,0,1,.27.72h-.61" transform="translate(-4.41 -3.02)"/><rect class="cls-3" x="118.07" y="22.7" width="0.64" height="4.64"/><path class="cls-3" d="M124,27.5v-.37h.6v.52a1.05,1.05,0,0,1,1-.59,1.08,1.08,0,0,1,1.17,1.1v2.19h-.62V28.31a.73.73,0,0,0-.17-.55.83.83,0,0,0-.57-.22.86.86,0,0,0-.84,1v1.86H124V27.5" transform="translate(-4.41 -3.02)"/><path class="cls-3" d="M129.93,25.72h.6v4.12c0,.07,0,.35,0,.51H130v-.51a.92.92,0,0,1-.29.34,1.47,1.47,0,0,1-.8.24c-.43,0-1.39-.22-1.39-1.64,0-1.23.7-1.76,1.46-1.76a1,1,0,0,1,1,.55V25.72m-.23,2.08a.88.88,0,0,0-.71-.33c-.89,0-.89,1.07-.89,1.29,0,.57.15,1.23.89,1.23,1,0,1-1,1-1.3A1.38,1.38,0,0,0,129.71,27.8Z" transform="translate(-4.41 -3.02)"/><path class="cls-3" d="M131.95,27.13v2.08c0,.32.07.71.69.71a.87.87,0,0,0,.76-.36,1,1,0,0,0,.13-.6V27.13h.62v2.62c0,.06,0,.42,0,.6h-.63v-.55a1,1,0,0,1-1,.58,1,1,0,0,1-1.17-1.09V27.13h.62" transform="translate(-4.41 -3.02)"/><path class="cls-3" d="M135.45,29.4c0,.24.12.58.71.58a.66.66,0,0,0,.57-.21.5.5,0,0,0,.1-.3c0-.32-.22-.37-.71-.48-.68-.15-1.24-.29-1.24-1s.51-1,1.26-1a1.3,1.3,0,0,1,1.16.5,1,1,0,0,1,.08.47h-.62c0-.49-.4-.53-.62-.53s-.66,0-.66.46c0,.3.29.37.46.41.89.21,1.09.26,1.28.44a.8.8,0,0,1,.24.6,1,1,0,0,1-.44.82,1.82,1.82,0,0,1-1,.22c-.66,0-1.27-.27-1.26-1h.64" transform="translate(-4.41 -3.02)"/><path class="cls-3" d="M137.72,27.12h.57v-.68l.6-.19v.87h.72v.44h-.72V29.5c0,.16,0,.43.43.43a1.34,1.34,0,0,0,.29,0v.47a3,3,0,0,1-.5,0c-.55,0-.82-.16-.82-.69V27.56h-.57v-.44" transform="translate(-4.41 -3.02)"/><path class="cls-3" d="M140.15,27.79c0-.22,0-.44,0-.66h.61v.62a.87.87,0,0,1,.77-.64,2,2,0,0,1,.42,0v.59l-.12,0h-.17c-.71,0-.88.42-.88,1v1.72h-.61V27.79" transform="translate(-4.41 -3.02)"/><polyline class="cls-3" points="139.71 27.36 139.25 28.56 138.62 28.56 139.11 27.33 137.77 24.11 138.45 24.11 139.46 26.66 140.49 24.11 141.15 24.11 139.71 27.36"/><path class="cls-3" d="M150.44,27a.88.88,0,0,0-1-.8c-1.12,0-1.32,1.14-1.32,1.92s.25,1.82,1.31,1.82a1,1,0,0,0,.75-.28.92.92,0,0,0,.23-.49h.71a1.57,1.57,0,0,1-1.74,1.29c-1.63,0-1.95-1.44-1.95-2.34s.38-2.44,2-2.44A1.49,1.49,0,0,1,151.13,27h-.69" transform="translate(-4.41 -3.02)"/><path class="cls-3" d="M151.61,25.73h.73v.66h-.73Zm.06,1.4h.6v3.23h-.6Z" transform="translate(-4.41 -3.02)"/><path class="cls-3" d="M152.75,27.12h.57v-.68l.6-.19v.87h.72v.44h-.72V29.5c0,.16,0,.43.43.43a1.34,1.34,0,0,0,.29,0v.47a3,3,0,0,1-.5,0c-.55,0-.82-.16-.82-.69V27.56h-.57v-.44" transform="translate(-4.41 -3.02)"/><path class="cls-3" d="M155.09,25.73h.73v.66h-.73Zm.06,1.4h.6v3.23h-.6Z" transform="translate(-4.41 -3.02)"/><polyline class="cls-3" points="151.89 26.72 153.61 24.57 151.98 24.57 151.98 24.11 154.3 24.11 154.3 24.63 152.52 26.87 154.3 26.87 154.3 27.34 151.89 27.34 151.89 26.72"/><path class="cls-3" d="M159.63,28.85c0,.67.26,1.16.93,1.16a.7.7,0,0,0,.76-.67h.6a1.09,1.09,0,0,1-.28.68,1.4,1.4,0,0,1-1.11.43c-1,0-1.5-.63-1.5-1.65a1.67,1.67,0,0,1,.64-1.52,1.55,1.55,0,0,1,.88-.24c1.45,0,1.41,1.28,1.4,1.81h-2.32m1.7-.42c0-.31-.05-1-.8-1a.87.87,0,0,0-.88,1Z" transform="translate(-4.41 -3.02)"/><path class="cls-3" d="M162.63,27.5v-.37h.6v.52a1.05,1.05,0,0,1,1-.59,1.08,1.08,0,0,1,1.17,1.1v2.19h-.62V28.31a.73.73,0,0,0-.17-.55.83.83,0,0,0-.57-.22.86.86,0,0,0-.84,1v1.86h-.6V27.5" transform="translate(-4.41 -3.02)"/><path class="cls-3" d="M166.69,29.4c0,.24.12.58.71.58a.66.66,0,0,0,.57-.21.5.5,0,0,0,.1-.3c0-.32-.22-.37-.71-.48-.68-.15-1.24-.29-1.24-1s.51-1,1.26-1a1.3,1.3,0,0,1,1.16.5,1,1,0,0,1,.08.47H168c0-.49-.41-.53-.62-.53s-.66,0-.66.46c0,.3.29.37.46.41.89.21,1.09.26,1.28.44a.8.8,0,0,1,.24.6,1,1,0,0,1-.44.82,1.82,1.82,0,0,1-1,.22c-.66,0-1.27-.27-1.26-1h.64" transform="translate(-4.41 -3.02)"/><path class="cls-3" d="M169.35,25.72H170v1.88a1.18,1.18,0,0,1,1-.53,1.11,1.11,0,0,1,1,.51,1.56,1.56,0,0,1,.11.75v2h-.62V28.45c0-.29,0-.91-.69-.91a.83.83,0,0,0-.76.43,1.53,1.53,0,0,0-.1.68v1.71h-.61V25.72" transform="translate(-4.41 -3.02)"/><path class="cls-3" d="M172.93,25.73h.73v.66h-.73Zm.06,1.4h.6v3.23H173Z" transform="translate(-4.41 -3.02)"/><path class="cls-3" d="M174.47,27.66c0-.14,0-.22,0-.53h.61v.53a1.25,1.25,0,0,1,1.1-.59c.69,0,1.36.48,1.36,1.67s-.7,1.73-1.47,1.73a1.12,1.12,0,0,1-1-.48v1.6h-.6V27.66M176,30a.82.82,0,0,0,.68-.31,1.81,1.81,0,0,0,.26-1c0-.58-.17-1.18-.89-1.18-1,0-1,1-1,1.31S175.1,30,176,30Z" transform="translate(-4.41 -3.02)"/><path class="cls-3" d="M182.61,27a.88.88,0,0,0-1-.8c-1.12,0-1.32,1.14-1.32,1.92s.25,1.82,1.31,1.82a1,1,0,0,0,.75-.28.91.91,0,0,0,.22-.49h.71a1.57,1.57,0,0,1-1.74,1.29c-1.63,0-1.95-1.44-1.95-2.34s.38-2.44,2-2.44A1.49,1.49,0,0,1,183.3,27h-.69" transform="translate(-4.41 -3.02)"/><path class="cls-3" d="M185.36,27a1.52,1.52,0,0,1,1.58,1.69,1.57,1.57,0,0,1-1.63,1.73,1.52,1.52,0,0,1-1.59-1.68A1.56,1.56,0,0,1,185.36,27m0,3c.46,0,1-.33,1-1.3,0-.8-.37-1.23-.94-1.23-.39,0-1,.24-1,1.25C184.36,29.41,184.64,30,185.33,30Z" transform="translate(-4.41 -3.02)"/><path class="cls-3" d="M189.61,30.36a1.73,1.73,0,0,1-.06-.48,1,1,0,0,1-1,.58c-.74,0-1.14-.42-1.14-1a1.06,1.06,0,0,1,.57-.95,2.52,2.52,0,0,1,1.12-.21l.44,0c0-.4,0-.57-.12-.71a.74.74,0,0,0-.56-.21c-.61,0-.64.42-.65.55h-.6a1,1,0,0,1,.23-.61,1.46,1.46,0,0,1,1-.35,1.3,1.3,0,0,1,1.14.48,1,1,0,0,1,.11.5l0,1.54a7.54,7.54,0,0,0,.05.81h-.55m-.42-1.59c-.24,0-1.16,0-1.16.66,0,.21.13.56.67.56a.77.77,0,0,0,.69-.35,1.51,1.51,0,0,0,.15-.85Z" transform="translate(-4.41 -3.02)"/><rect class="cls-3" x="186.56" y="22.7" width="0.6" height="4.64"/><path class="cls-3" d="M192.38,25.73h.73v.66h-.73Zm.06,1.4h.6v3.23h-.6Z" transform="translate(-4.41 -3.02)"/><path class="cls-3" d="M193.52,27.12h.57v-.68l.6-.19v.87h.72v.44h-.72V29.5c0,.16,0,.43.43.43a1.34,1.34,0,0,0,.29,0v.47a3,3,0,0,1-.5,0c-.55,0-.82-.16-.82-.69V27.56h-.57v-.44" transform="translate(-4.41 -3.02)"/><path class="cls-3" d="M195.86,25.73h.73v.66h-.73Zm.06,1.4h.6v3.23h-.6Z" transform="translate(-4.41 -3.02)"/><path class="cls-3" d="M198.84,27a1.52,1.52,0,0,1,1.58,1.69,1.57,1.57,0,0,1-1.63,1.73,1.52,1.52,0,0,1-1.59-1.68A1.56,1.56,0,0,1,198.84,27m0,3c.46,0,1-.33,1-1.3,0-.8-.37-1.23-.94-1.23-.39,0-1,.24-1,1.25C197.83,29.41,198.11,30,198.8,30Z" transform="translate(-4.41 -3.02)"/><path class="cls-3" d="M201.12,27.5v-.37h.6v.52a1.05,1.05,0,0,1,1-.59,1.08,1.08,0,0,1,1.17,1.1v2.19h-.62V28.31a.73.73,0,0,0-.17-.55.83.83,0,0,0-.57-.22.86.86,0,0,0-.84,1v1.86h-.6V27.5" transform="translate(-4.41 -3.02)"/></svg>