<svg id="Layer_1" data-name="Layer 1" xmlns="http://www.w3.org/2000/svg" xmlns:xlink="http://www.w3.org/1999/xlink" viewBox="0 0 203.22 64.78"><defs><style>.cls-1,.cls-22,.cls-23,.cls-24,.cls-25,.cls-33,.cls-34,.cls-35,.cls-36,.cls-4{fill:none;}.cls-2{clip-path:url(#clip-path);}.cls-3{fill:#fff;}.cls-4{stroke:#00aeef;}.cls-22,.cls-23,.cls-24,.cls-25,.cls-33,.cls-34,.cls-35,.cls-4{stroke-width:4px;}.cls-26,.cls-5{font-size:7px;fill:#231f20;font-style:italic;}.cls-5{font-family:SanFranciscoText-LightItalic, San Francisco Text;font-weight:300;}.cls-6{letter-spacing:-0.01em;}.cls-7{letter-spacing:-0.07em;}.cls-8{letter-spacing:0em;}.cls-9{letter-spacing:0em;}.cls-10{letter-spacing:-0.01em;}.cls-11{letter-spacing:0em;}.cls-12{letter-spacing:0em;}.cls-13{letter-spacing:-0.01em;}.cls-14{letter-spacing:0em;}.cls-15{letter-spacing:0em;}.cls-16{letter-spacing:0em;}.cls-17{letter-spacing:0em;}.cls-18{letter-spacing:0em;}.cls-19{letter-spacing:-0.04em;}.cls-20{letter-spacing:0em;}.cls-21{letter-spacing:-0.01em;}.cls-22{stroke:#006dad;}.cls-23{stroke:#fee900;}.cls-24{stroke:#00a775;}.cls-25{stroke:#d7df23;}.cls-26{font-family:SanFranciscoText-Italic, San Francisco Text;}.cls-27{letter-spacing:-0.01em;}.cls-28{letter-spacing:-0.01em;}.cls-29{letter-spacing:-0.02em;}.cls-30{letter-spacing:-0.01em;}.cls-31{letter-spacing:-0.02em;}.cls-32{letter-spacing:0.01em;}.cls-33{stroke:#8dc63f;}.cls-34{stroke:#00a88e;}.cls-35{stroke:#007b78;}.cls-36{stroke:#231f20;stroke-width:0.25px;}</style><clipPath id="clip-path"><rect class="cls-1" x="-314.64" y="-299.52" width="612" height="792"/></clipPath></defs><g class="cls-2"><g class="cls-2"><rect class="cls-3" x="-314.64" y="-299.52" width="612" height="792"/><line class="cls-4" x1="10" y1="12.77" x2="28" y2="12.77"/><text class="cls-5" transform="translate(31.87 14.29)"><tspan class="cls-6">0</tspan><tspan class="cls-7" x="4.09" y="0">.</tspan><tspan class="cls-8" x="5.39" y="0">1 </tspan><tspan class="cls-9" x="10.19" y="0">t</tspan><tspan x="12.72" y="0">o </tspan><tspan class="cls-10" x="18.17" y="0">2</tspan><tspan class="cls-8" x="21.95" y="0">0GHz </tspan><tspan class="cls-11" x="40.31" y="0">S</tspan><tspan class="cls-12" x="44.4" y="0">o</tspan><tspan x="48.24" y="0">u</tspan><tspan class="cls-13" x="52.23" y="0">r</tspan><tspan class="cls-14" x="54.76" y="0">c</tspan><tspan x="58.38" y="0">e</tspan></text><text class="cls-5" transform="translate(31.87 27.29)">4 <tspan class="cls-15" x="5.62" y="0">t</tspan><tspan class="cls-8" x="8.16" y="0">o 50GHz </tspan><tspan class="cls-11" x="35.96" y="0">S</tspan><tspan class="cls-15" x="40.05" y="0">o</tspan><tspan class="cls-16" x="43.89" y="0">u</tspan><tspan class="cls-13" x="47.87" y="0">r</tspan><tspan class="cls-17" x="50.4" y="0">c</tspan><tspan class="cls-16" x="54.02" y="0">e </tspan></text><text class="cls-5" transform="translate(31.87 40.29)">Dis<tspan class="cls-18" x="9.89" y="0">t</tspan><tspan x="12.47" y="0">ri</tspan><tspan class="cls-15" x="16.93" y="0">b</tspan><tspan class="cls-16" x="20.96" y="0">u</tspan><tspan class="cls-9" x="24.94" y="0">t</tspan><tspan x="27.47" y="0">ed </tspan><tspan class="cls-19" x="36.81" y="0">L</tspan><tspan class="cls-16" x="40.1" y="0">O</tspan></text><text class="cls-5" transform="translate(31.87 53.29)">IF <tspan class="cls-9" x="7.18" y="0">t</tspan><tspan x="9.71" y="0">o </tspan><tspan class="cls-20" x="15.17" y="0">R</tspan><tspan class="cls-8" x="19.4" y="0">e</tspan><tspan class="cls-14" x="23.11" y="0">c</tspan><tspan x="26.73" y="0">ei</tspan><tspan class="cls-21" x="32.27" y="0">v</tspan><tspan x="35.65" y="0">er</tspan></text><line class="cls-22" x1="10" y1="25.77" x2="28" y2="25.77"/><line class="cls-23" x1="10" y1="38.77" x2="28" y2="38.77"/><line class="cls-24" x1="10" y1="51.77" x2="28" y2="51.77"/><line class="cls-25" x1="117.94" y1="12.77" x2="133.02" y2="12.77"/><text class="cls-26" transform="translate(136.25 14.29)">Di<tspan class="cls-27" x="6.51" y="0">r</tspan><tspan x="9.12" y="0">ect </tspan><tspan class="cls-20" x="20.69" y="0">R</tspan><tspan x="24.98" y="0">ecei</tspan><tspan class="cls-6" x="37.96" y="0">v</tspan><tspan x="41.43" y="0">e IF</tspan></text><text class="cls-26" transform="translate(136.25 27.29)"><tspan class="cls-12">R</tspan><tspan x="4.3" y="0">e</tspan><tspan class="cls-28" x="8.04" y="0">f</tspan><tspan class="cls-8" x="10.52" y="0">lected </tspan><tspan class="cls-29" x="31.8" y="0">W</tspan><tspan x="37.72" y="0">a</tspan><tspan class="cls-30" x="41.49" y="0">v</tspan><tspan x="44.95" y="0">e IF</tspan></text><text class="cls-26" transform="translate(136.25 40.29)">Incident <tspan class="cls-31" x="27.58" y="0">W</tspan><tspan x="33.5" y="0">a</tspan><tspan class="cls-30" x="37.27" y="0">v</tspan><tspan x="40.73" y="0">e IF</tspan></text><text class="cls-26" transform="translate(136.25 53.29)">4-50GHz <tspan class="cls-32" x="29.54" y="0">M</tspan><tspan x="35.2" y="0">easu</tspan><tspan class="cls-6" x="50.26" y="0">r</tspan><tspan x="52.87" y="0">e</tspan></text><line class="cls-33" x1="117.94" y1="25.77" x2="133.02" y2="25.77"/><line class="cls-34" x1="117.94" y1="38.77" x2="133.02" y2="38.77"/><line class="cls-35" x1="117.94" y1="51.77" x2="133.02" y2="51.77"/><rect class="cls-36" x="0.13" y="0.13" width="202.97" height="64.52"/></g></g></svg>