<?xml version="1.0" encoding="utf-8"?>
<!-- Generator: Adobe Illustrator 24.2.1, SVG Export Plug-In . SVG Version: 6.00 Build 0)  -->
<svg version="1.1" id="Layer_1" xmlns="http://www.w3.org/2000/svg" xmlns:xlink="http://www.w3.org/1999/xlink" x="0px" y="0px"
	 viewBox="0 0 210.7 64.1" style="enable-background:new 0 0 210.7 64.1;" xml:space="preserve">
<style type="text/css">
            @font-face {
    	font-family: 'Source Sans Pro';
    	font-style: normal;
    	font-weight: 400;
    	src: local('Source Sans Pro Regular'), local('SourceSansPro-Regular'),
			url('../fonts/source-sans-pro-v13-latin-regular.woff2') format('woff2'),
    		url('../fonts/source-sans-pro-v13-latin-regular.woff') format('woff');
    }
	.st0{fill:#666666;}
	.st1{font-family:'Source Sans Pro';}
	.st2{font-size:7px;}
	.st3{opacity:0.88;}
	.st4{fill:none;stroke:#FEE900;stroke-width:4;}
	.st5{fill:none;stroke:#00AEEF;stroke-width:4;}
	.st6{fill:none;stroke:#006DAD;stroke-width:4;}
	.st7{fill:none;stroke:#8DC63F;stroke-width:4;}
	.st8{fill:none;stroke:#39B54A;stroke-width:4;}
	.st9{fill:none;stroke:#00A775;stroke-width:4;}
	.st10{fill:none;stroke:#007B78;stroke-width:4;}
</style>
<text transform="matrix(1 0 0 1 31.764 13.9002)" class="st0 st1 st2">Distributed LO</text>
<text transform="matrix(1 0 0 1 31.764 33.9002)" class="st0 st1 st2">0.1 to 20 GHz Source</text>
<text transform="matrix(1 0 0 1 31.764 53.9002)" class="st0 st1 st2">56 to 67 GHz Source</text>
<text transform="matrix(1 0 0 1 139.764 13.9002)" class="st0 st1 st2">Reflected Wave IF</text>
<text transform="matrix(1 0 0 1 139.764 26.6802)" class="st0 st1 st2">Incident Wave IF</text>
<text transform="matrix(1 0 0 1 139.764 39.9802)" class="st0 st1 st2">IF to Receiver</text>
<text transform="matrix(1 0 0 1 139.764 53.5802)" class="st0 st1 st2">56 to 67 GHz Measure</text>
<g class="st3">
	<line class="st4" x1="9.9" y1="12.1" x2="27.9" y2="12.1"/>
	<line class="st5" x1="9.9" y1="32.1" x2="27.9" y2="32.1"/>
	<line class="st6" x1="9.9" y1="52.1" x2="27.9" y2="52.1"/>
	<line class="st7" x1="117.9" y1="12.1" x2="135.9" y2="12.1"/>
	<line class="st8" x1="117.9" y1="25.1" x2="135.9" y2="25.1"/>
	<line class="st9" x1="117.9" y1="38.1" x2="135.9" y2="38.1"/>
	<line class="st10" x1="117.9" y1="51.1" x2="135.9" y2="51.1"/>
</g>
<g>
	<path class="st0" d="M210.2,0.5v63.1H0.5V0.5H210.2 M210.7,0H0v64.1h210.7V0L210.7,0z"/>
</g>
</svg>
