<svg id="Layer_1" data-name="Layer 1" xmlns="http://www.w3.org/2000/svg" xmlns:xlink="http://www.w3.org/1999/xlink" viewBox="0 0 106.37 64.78"><defs><style>.cls-1,.cls-10,.cls-18,.cls-6,.cls-8{fill:none;}.cls-2{clip-path:url(#clip-path);}.cls-3{fill:#fff;}.cls-4{opacity:0.75;}.cls-5{clip-path:url(#clip-path-4);}.cls-6{stroke:#fee900;}.cls-10,.cls-6,.cls-8{stroke-width:4px;}.cls-7{clip-path:url(#clip-path-5);}.cls-8{stroke:#f58220;}.cls-9{clip-path:url(#clip-path-6);}.cls-10{stroke:#d2232a;}.cls-11{font-size:7px;fill:#231f20;font-family:SanFranciscoText-Italic, San Francisco Text;font-style:italic;}.cls-12{letter-spacing:0.01em;}.cls-13{letter-spacing:-0.04em;}.cls-14{letter-spacing:0.02em;}.cls-15{letter-spacing:-0.01em;}.cls-16{letter-spacing:-0.01em;}.cls-17{letter-spacing:0.01em;}.cls-18{stroke:#231f20;stroke-width:0.25px;}</style><clipPath id="clip-path"><rect class="cls-1" x="-314.02" y="-640.65" width="612" height="792"/></clipPath><clipPath id="clip-path-4"><rect class="cls-1" x="8.63" y="9.78" width="20" height="6"/></clipPath><clipPath id="clip-path-5"><rect class="cls-1" x="8.63" y="29.78" width="20" height="6"/></clipPath><clipPath id="clip-path-6"><rect class="cls-1" x="8.63" y="49.78" width="20" height="6"/></clipPath></defs><g class="cls-2"><g class="cls-2"><rect class="cls-3" x="-314.02" y="-640.65" width="612" height="792"/><g class="cls-2"><g class="cls-4"><g class="cls-5"><line class="cls-6" x1="9.63" y1="12.78" x2="27.63" y2="12.78"/></g></g><g class="cls-4"><g class="cls-7"><line class="cls-8" x1="9.63" y1="32.78" x2="27.63" y2="32.78"/></g></g><g class="cls-4"><g class="cls-9"><line class="cls-10" x1="9.63" y1="52.78" x2="27.63" y2="52.78"/></g></g></g><text class="cls-11" transform="translate(31.49 14.3)">Dis<tspan class="cls-12" x="10.03" y="0">t</tspan><tspan x="12.7" y="0">ributed </tspan><tspan class="cls-13" x="37.4" y="0">L</tspan><tspan x="40.71" y="0">O</tspan></text><text class="cls-11" transform="translate(31.49 34.3)"><tspan class="cls-14">D</tspan><tspan class="cls-15" x="4.75" y="0">o</tspan><tspan x="8.56" y="0">wncon</tspan><tspan class="cls-16" x="29.19" y="0">v</tspan><tspan x="32.65" y="0">e</tspan><tspan class="cls-12" x="36.39" y="0">r</tspan><tspan x="39.13" y="0">ted IF</tspan></text><text class="cls-11" transform="translate(31.49 54.3)">4-50GHz <tspan class="cls-17" x="29.54" y="0">M</tspan><tspan x="35.2" y="0">easu</tspan><tspan class="cls-16" x="50.26" y="0">r</tspan><tspan x="52.87" y="0">e</tspan></text><rect class="cls-18" x="0.13" y="0.13" width="106.13" height="64.52"/></g></g></svg>