<svg id="Layer_1" data-name="Layer 1" xmlns="http://www.w3.org/2000/svg" xmlns:xlink="http://www.w3.org/1999/xlink" viewBox="0 0 209.06 64.79"><defs><style>.cls-1,.cls-23,.cls-24,.cls-25,.cls-26,.cls-35,.cls-36,.cls-37,.cls-4,.cls-5{fill:none;}.cls-2{clip-path:url(#clip-path);}.cls-3{fill:#fff;}.cls-4{stroke:#231f20;stroke-width:0.25px;}.cls-5{stroke:#00aeef;}.cls-23,.cls-24,.cls-25,.cls-26,.cls-35,.cls-36,.cls-37,.cls-5{stroke-width:4px;}.cls-27,.cls-6{font-size:7px;fill:#231f20;font-style:italic;}.cls-6{font-family:SanFranciscoText-LightItalic, San Francisco Text;font-weight:300;}.cls-7{letter-spacing:-0.01em;}.cls-8{letter-spacing:-0.07em;}.cls-9{letter-spacing:0em;}.cls-10{letter-spacing:0em;}.cls-11{letter-spacing:-0.01em;}.cls-12{letter-spacing:0em;}.cls-13{letter-spacing:0em;}.cls-14{letter-spacing:-0.01em;}.cls-15{letter-spacing:0em;}.cls-16{letter-spacing:-0.02em;}.cls-17{letter-spacing:0em;}.cls-18{letter-spacing:0em;}.cls-19{letter-spacing:0em;}.cls-20{letter-spacing:-0.04em;}.cls-21{letter-spacing:0em;}.cls-22{letter-spacing:-0.01em;}.cls-23{stroke:#25408f;}.cls-24{stroke:#fee900;}.cls-25{stroke:#00a775;}.cls-26{stroke:#d7df23;}.cls-27{font-family:SanFranciscoText-Italic, San Francisco Text;}.cls-28{letter-spacing:-0.01em;}.cls-29{letter-spacing:-0.01em;}.cls-30{letter-spacing:-0.02em;}.cls-31{letter-spacing:-0.01em;}.cls-32{letter-spacing:-0.02em;}.cls-33{letter-spacing:-0.03em;}.cls-34{letter-spacing:0.01em;}.cls-35{stroke:#8dc63f;}.cls-36{stroke:#00a88e;}.cls-37{stroke:#007b78;}</style><clipPath id="clip-path"><rect class="cls-1" x="-323.89" y="-298.76" width="612" height="792"/></clipPath></defs><g class="cls-2"><g class="cls-2"><rect class="cls-3" x="-323.89" y="-298.76" width="612" height="792"/><rect class="cls-4" x="0.13" y="0.12" width="208.73" height="64.52"/><line class="cls-5" x1="10.63" y1="12.77" x2="28.63" y2="12.77"/><text class="cls-6" transform="translate(32.49 14.29)"><tspan class="cls-7">0</tspan><tspan class="cls-8" x="4.09" y="0">.</tspan><tspan class="cls-9" x="5.39" y="0">1 </tspan><tspan class="cls-10" x="10.19" y="0">t</tspan><tspan x="12.72" y="0">o </tspan><tspan class="cls-11" x="18.17" y="0">2</tspan><tspan class="cls-9" x="21.95" y="0">0GHz </tspan><tspan class="cls-12" x="40.31" y="0">S</tspan><tspan class="cls-13" x="44.4" y="0">o</tspan><tspan x="48.24" y="0">u</tspan><tspan class="cls-14" x="52.23" y="0">r</tspan><tspan class="cls-15" x="54.76" y="0">c</tspan><tspan x="58.38" y="0">e</tspan></text><text class="cls-6" transform="translate(32.49 27.29)"><tspan class="cls-16">7</tspan><tspan class="cls-9" x="3.55" y="0">1-</tspan><tspan class="cls-13" x="9.73" y="0">86</tspan><tspan x="17.81" y="0">GHz </tspan><tspan class="cls-12" x="32.02" y="0">S</tspan><tspan class="cls-13" x="36.11" y="0">o</tspan><tspan x="39.95" y="0">u</tspan><tspan class="cls-14" x="43.94" y="0">r</tspan><tspan class="cls-15" x="46.47" y="0">c</tspan><tspan x="50.09" y="0">e </tspan></text><text class="cls-6" transform="translate(32.49 40.29)">Dis<tspan class="cls-17" x="9.89" y="0">t</tspan><tspan x="12.47" y="0">ri</tspan><tspan class="cls-18" x="16.93" y="0">b</tspan><tspan class="cls-19" x="20.96" y="0">u</tspan><tspan class="cls-10" x="24.94" y="0">t</tspan><tspan x="27.47" y="0">ed </tspan><tspan class="cls-20" x="36.81" y="0">L</tspan><tspan class="cls-19" x="40.1" y="0">O</tspan></text><text class="cls-6" transform="translate(32.49 53.29)">IF <tspan class="cls-10" x="7.18" y="0">t</tspan><tspan x="9.71" y="0">o </tspan><tspan class="cls-21" x="15.17" y="0">R</tspan><tspan class="cls-9" x="19.4" y="0">e</tspan><tspan class="cls-15" x="23.11" y="0">c</tspan><tspan x="26.73" y="0">ei</tspan><tspan class="cls-22" x="32.27" y="0">v</tspan><tspan x="35.65" y="0">er</tspan></text><line class="cls-23" x1="10.63" y1="25.77" x2="28.63" y2="25.77"/><line class="cls-24" x1="10.63" y1="38.77" x2="28.63" y2="38.77"/><line class="cls-25" x1="10.63" y1="51.77" x2="28.63" y2="51.77"/><line class="cls-26" x1="114.63" y1="12.77" x2="130.35" y2="12.77"/><text class="cls-27" transform="translate(133.73 14.29)">Di<tspan class="cls-28" x="6.51" y="0">r</tspan><tspan x="9.12" y="0">ect </tspan><tspan class="cls-21" x="20.69" y="0">R</tspan><tspan x="24.98" y="0">ecei</tspan><tspan class="cls-7" x="37.96" y="0">v</tspan><tspan x="41.43" y="0">e IF</tspan></text><text class="cls-27" transform="translate(133.73 27.29)"><tspan class="cls-18">R</tspan><tspan x="4.3" y="0">e</tspan><tspan class="cls-29" x="8.04" y="0">f</tspan><tspan class="cls-9" x="10.52" y="0">lected </tspan><tspan class="cls-30" x="31.8" y="0">W</tspan><tspan x="37.72" y="0">a</tspan><tspan class="cls-31" x="41.49" y="0">v</tspan><tspan x="44.95" y="0">e IF</tspan></text><text class="cls-27" transform="translate(133.73 40.29)">Incident <tspan class="cls-32" x="27.58" y="0">W</tspan><tspan x="33.5" y="0">a</tspan><tspan class="cls-31" x="37.27" y="0">v</tspan><tspan x="40.73" y="0">e IF</tspan></text><text class="cls-27" transform="translate(133.73 53.29)"><tspan class="cls-33">7</tspan><tspan x="3.6" y="0">1-86GHz </tspan><tspan class="cls-34" x="32.21" y="0">M</tspan><tspan x="37.86" y="0">easu</tspan><tspan class="cls-7" x="52.92" y="0">r</tspan><tspan x="55.53" y="0">e</tspan></text><line class="cls-35" x1="114.63" y1="25.77" x2="130.35" y2="25.77"/><line class="cls-36" x1="114.63" y1="38.77" x2="130.35" y2="38.77"/><line class="cls-37" x1="114.63" y1="51.77" x2="130.35" y2="51.77"/></g></g></svg>