<svg id="Layer_1" data-name="Layer 1" xmlns="http://www.w3.org/2000/svg" xmlns:xlink="http://www.w3.org/1999/xlink" viewBox="0 0 101.85 63.53"><defs><style>.cls-1,.cls-21,.cls-23,.cls-25,.cls-26,.cls-6{fill:none;}.cls-2{clip-path:url(#clip-path);}.cls-3{fill:#fff;}.cls-4{opacity:0.75;}.cls-5{clip-path:url(#clip-path-4);}.cls-6{stroke:#00aeef;}.cls-21,.cls-23,.cls-25,.cls-6{stroke-width:4px;}.cls-7{font-size:7px;fill:#231f20;font-family:SanFranciscoText-Italic, San Francisco Text;font-style:italic;}.cls-8{letter-spacing:0em;}.cls-9{letter-spacing:-0.01em;}.cls-10{letter-spacing:0.01em;}.cls-11{letter-spacing:0em;}.cls-12{letter-spacing:-0.02em;}.cls-13{letter-spacing:-0.01em;}.cls-14{letter-spacing:0em;}.cls-15{letter-spacing:-0.01em;}.cls-16{letter-spacing:0em;}.cls-17{letter-spacing:-0.02em;}.cls-18{letter-spacing:0em;}.cls-19{letter-spacing:-0.01em;}.cls-20{clip-path:url(#clip-path-6);}.cls-21{stroke:#00a775;}.cls-22{clip-path:url(#clip-path-7);}.cls-23{stroke:#8dc63f;}.cls-24{clip-path:url(#clip-path-8);}.cls-25{stroke:#007b78;}.cls-26{stroke:#231f20;stroke-width:0.5px;}</style><clipPath id="clip-path"><rect class="cls-1" x="-311.66" y="-299.04" width="612" height="792"/></clipPath><clipPath id="clip-path-4"><rect class="cls-1" x="8.77" y="9.97" width="20" height="6"/></clipPath><clipPath id="clip-path-6"><rect class="cls-1" x="8.77" y="22.97" width="20" height="6"/></clipPath><clipPath id="clip-path-7"><rect class="cls-1" x="8.77" y="35.97" width="20" height="6"/></clipPath><clipPath id="clip-path-8"><rect class="cls-1" x="8.77" y="48.97" width="20" height="6"/></clipPath></defs><g class="cls-2"><g class="cls-2"><rect class="cls-3" x="-311.66" y="-299.04" width="612" height="792"/><g class="cls-2"><g class="cls-4"><g class="cls-5"><line class="cls-6" x1="9.77" y1="12.97" x2="27.77" y2="12.97"/></g></g></g><text class="cls-7" transform="translate(31.64 14.5)"><tspan class="cls-8">S</tspan><tspan x="4.1" y="0">ou</tspan><tspan class="cls-9" x="12" y="0">r</tspan><tspan x="14.61" y="0">ce </tspan><tspan class="cls-10" x="23.58" y="0">P</tspan><tspan class="cls-11" x="27.7" y="0">aths</tspan></text><text class="cls-7" transform="translate(31.64 27.5)">Incident <tspan class="cls-12" x="27.58" y="0">W</tspan><tspan x="33.5" y="0">a</tspan><tspan class="cls-13" x="37.27" y="0">v</tspan><tspan x="40.73" y="0">es</tspan></text><text class="cls-7" transform="translate(31.64 40.5)"><tspan class="cls-14">R</tspan><tspan x="4.3" y="0">e</tspan><tspan class="cls-15" x="8.04" y="0">f</tspan><tspan class="cls-16" x="10.52" y="0">lected </tspan><tspan class="cls-17" x="31.8" y="0">W</tspan><tspan x="37.72" y="0">a</tspan><tspan class="cls-13" x="41.49" y="0">v</tspan><tspan x="44.95" y="0">es</tspan></text><text class="cls-7" transform="translate(31.64 53.5)">IF to <tspan class="cls-18" x="15.36" y="0">R</tspan><tspan x="19.65" y="0">ecei</tspan><tspan class="cls-19" x="32.64" y="0">v</tspan><tspan x="36.1" y="0">er</tspan></text><g class="cls-2"><g class="cls-4"><g class="cls-20"><line class="cls-21" x1="9.77" y1="25.97" x2="27.77" y2="25.97"/></g></g><g class="cls-4"><g class="cls-22"><line class="cls-23" x1="9.77" y1="38.97" x2="27.77" y2="38.97"/></g></g><g class="cls-4"><g class="cls-24"><line class="cls-25" x1="9.77" y1="51.97" x2="27.77" y2="51.97"/></g></g></g><rect class="cls-26" x="0.27" y="0.26" width="101.3" height="63"/></g></g></svg>