<svg id="Layer_1" data-name="Layer 1" xmlns="http://www.w3.org/2000/svg" xmlns:xlink="http://www.w3.org/1999/xlink" viewBox="0 0 205.88 64.81"><defs><style>.cls-1,.cls-10,.cls-27,.cls-38,.cls-40,.cls-42,.cls-43,.cls-6,.cls-8{fill:none;}.cls-2{clip-path:url(#clip-path);}.cls-3{fill:#fff;}.cls-4{opacity:0.75;}.cls-5{clip-path:url(#clip-path-4);}.cls-6{stroke:#fee900;}.cls-10,.cls-27,.cls-38,.cls-40,.cls-42,.cls-6,.cls-8{stroke-width:4px;}.cls-7{clip-path:url(#clip-path-5);}.cls-8{stroke:#00aeef;}.cls-9{clip-path:url(#clip-path-6);}.cls-10{stroke:#006dad;}.cls-11,.cls-28{font-size:7px;fill:#231f20;font-style:italic;}.cls-11{font-family:SanFranciscoText-LightItalic, San Francisco Text;font-weight:300;}.cls-12{letter-spacing:0em;}.cls-13{letter-spacing:0em;}.cls-14{letter-spacing:0em;}.cls-15{letter-spacing:0em;}.cls-16{letter-spacing:-0.04em;}.cls-17{letter-spacing:-0.01em;}.cls-18{letter-spacing:-0.07em;}.cls-19{letter-spacing:0em;}.cls-20{letter-spacing:-0.01em;}.cls-21{letter-spacing:0em;}.cls-22{letter-spacing:0em;}.cls-23{letter-spacing:-0.01em;}.cls-24{letter-spacing:0em;}.cls-25{letter-spacing:0.07em;}.cls-26{clip-path:url(#clip-path-8);}.cls-27{stroke:#8dc63f;}.cls-28{font-family:SanFranciscoText-Italic, San Francisco Text;}.cls-29{letter-spacing:-0.01em;}.cls-30{letter-spacing:-0.02em;}.cls-31{letter-spacing:-0.01em;}.cls-32{letter-spacing:-0.02em;}.cls-33{letter-spacing:0em;}.cls-34{letter-spacing:-0.01em;}.cls-35{letter-spacing:0.07em;}.cls-36{letter-spacing:0.01em;}.cls-37{clip-path:url(#clip-path-10);}.cls-38{stroke:#39b54a;}.cls-39{clip-path:url(#clip-path-11);}.cls-40{stroke:#00a775;}.cls-41{clip-path:url(#clip-path-12);}.cls-42{stroke:#007b78;}.cls-43{stroke:#a8a7ad;stroke-width:0.5px;}</style><clipPath id="clip-path"><rect class="cls-1" x="-313.14" y="-298.75" width="612" height="792"/></clipPath><clipPath id="clip-path-4"><rect class="cls-1" x="8.55" y="9.78" width="20" height="6"/></clipPath><clipPath id="clip-path-5"><rect class="cls-1" x="8.55" y="29.78" width="20" height="6"/></clipPath><clipPath id="clip-path-6"><rect class="cls-1" x="8.55" y="49.78" width="20" height="6"/></clipPath><clipPath id="clip-path-8"><rect class="cls-1" x="116.55" y="9.78" width="20" height="6"/></clipPath><clipPath id="clip-path-10"><rect class="cls-1" x="116.55" y="22.78" width="20" height="6"/></clipPath><clipPath id="clip-path-11"><rect class="cls-1" x="116.55" y="35.78" width="20" height="6"/></clipPath><clipPath id="clip-path-12"><rect class="cls-1" x="116.55" y="48.78" width="20" height="6"/></clipPath></defs><g class="cls-2"><g class="cls-2"><rect class="cls-3" x="-313.14" y="-298.75" width="612" height="792"/><g class="cls-2"><g class="cls-4"><g class="cls-5"><line class="cls-6" x1="9.55" y1="12.78" x2="27.55" y2="12.78"/></g></g><g class="cls-4"><g class="cls-7"><line class="cls-8" x1="9.55" y1="32.78" x2="27.55" y2="32.78"/></g></g><g class="cls-4"><g class="cls-9"><line class="cls-10" x1="9.55" y1="52.78" x2="27.55" y2="52.78"/></g></g></g><text class="cls-11" transform="translate(31.41 14.63)">Dis<tspan class="cls-12" x="9.89" y="0">t</tspan><tspan x="12.47" y="0">ri</tspan><tspan class="cls-13" x="16.93" y="0">b</tspan><tspan class="cls-14" x="20.96" y="0">u</tspan><tspan class="cls-15" x="24.94" y="0">t</tspan><tspan x="27.47" y="0">ed </tspan><tspan class="cls-16" x="36.81" y="0">L</tspan><tspan class="cls-14" x="40.1" y="0">O</tspan></text><text class="cls-11" transform="translate(31.41 34.63)"><tspan class="cls-17">0</tspan><tspan class="cls-18" x="4.09" y="0">.</tspan><tspan class="cls-19" x="5.39" y="0">1 </tspan><tspan class="cls-15" x="10.19" y="0">t</tspan><tspan x="12.72" y="0">o </tspan><tspan class="cls-20" x="18.17" y="0">2</tspan><tspan class="cls-19" x="21.95" y="0">0GHz </tspan><tspan class="cls-21" x="40.31" y="0">S</tspan><tspan class="cls-22" x="44.4" y="0">o</tspan><tspan x="48.24" y="0">u</tspan><tspan class="cls-23" x="52.23" y="0">r</tspan><tspan class="cls-24" x="54.76" y="0">c</tspan><tspan x="58.38" y="0">e</tspan></text><text class="cls-11" transform="translate(31.41 54.63)">56-6<tspan class="cls-25" x="14.99" y="0">7</tspan><tspan x="19.17" y="0">GHz </tspan><tspan class="cls-21" x="33.38" y="0">S</tspan><tspan class="cls-22" x="37.46" y="0">o</tspan><tspan x="41.31" y="0">u</tspan><tspan class="cls-23" x="45.29" y="0">r</tspan><tspan class="cls-24" x="47.82" y="0">c</tspan><tspan x="51.44" y="0">e</tspan></text><g class="cls-2"><g class="cls-4"><g class="cls-26"><line class="cls-27" x1="117.55" y1="12.78" x2="135.55" y2="12.78"/></g></g></g><text class="cls-28" transform="translate(139.41 13.71)"><tspan class="cls-22">R</tspan><tspan x="4.3" y="0">e</tspan><tspan class="cls-29" x="8.04" y="0">f</tspan><tspan class="cls-19" x="10.52" y="0">lected </tspan><tspan class="cls-30" x="31.8" y="0">W</tspan><tspan x="37.72" y="0">a</tspan><tspan class="cls-31" x="41.49" y="0">v</tspan><tspan x="44.95" y="0">e IF</tspan></text><text class="cls-28" transform="translate(139.41 26.71)">Incident <tspan class="cls-32" x="27.58" y="0">W</tspan><tspan x="33.5" y="0">a</tspan><tspan class="cls-31" x="37.27" y="0">v</tspan><tspan x="40.73" y="0">e IF</tspan></text><text class="cls-28" transform="translate(139.41 39.71)">IF to <tspan class="cls-33" x="15.36" y="0">R</tspan><tspan x="19.65" y="0">ecei</tspan><tspan class="cls-34" x="32.64" y="0">v</tspan><tspan x="36.1" y="0">er</tspan></text><text class="cls-28" transform="translate(139.41 52.71)">56-6<tspan class="cls-35" x="14.9" y="0">7</tspan><tspan x="19.15" y="0">GHz </tspan><tspan class="cls-36" x="33.53" y="0">M</tspan><tspan x="39.18" y="0">easu</tspan><tspan class="cls-34" x="54.24" y="0">r</tspan><tspan x="56.85" y="0">e</tspan></text><g class="cls-2"><g class="cls-4"><g class="cls-37"><line class="cls-38" x1="117.55" y1="25.78" x2="135.55" y2="25.78"/></g></g><g class="cls-4"><g class="cls-39"><line class="cls-40" x1="117.55" y1="38.78" x2="135.55" y2="38.78"/></g></g><g class="cls-4"><g class="cls-41"><line class="cls-42" x1="117.55" y1="51.78" x2="135.55" y2="51.78"/></g></g></g><rect class="cls-43" x="0.05" y="1.03" width="205.99" height="63.5"/></g></g></svg>