<svg id="Layer_1" data-name="Layer 1" xmlns="http://www.w3.org/2000/svg" xmlns:xlink="http://www.w3.org/1999/xlink" viewBox="0 0 203.08 64.01"><defs><style>.cls-1,.cls-10,.cls-21,.cls-23,.cls-25,.cls-6,.cls-8{fill:none;}.cls-2{clip-path:url(#clip-path);}.cls-3{fill:#fff;}.cls-4{opacity:0.75;}.cls-5{clip-path:url(#clip-path-4);}.cls-6{stroke:#8dc63f;}.cls-10,.cls-23,.cls-25,.cls-6,.cls-8{stroke-width:4px;}.cls-7{clip-path:url(#clip-path-5);}.cls-8{stroke:#39b54a;}.cls-9{clip-path:url(#clip-path-6);}.cls-10{stroke:#00a88e;}.cls-11{font-size:7px;fill:#231f20;font-family:SanFranciscoText-LightItalic, San Francisco Text;font-weight:300;font-style:italic;}.cls-12{letter-spacing:-0.02em;}.cls-13{letter-spacing:0em;}.cls-14{letter-spacing:-0.01em;}.cls-15{letter-spacing:0em;}.cls-16{letter-spacing:-0.01em;}.cls-17{letter-spacing:0em;}.cls-18{letter-spacing:0em;}.cls-19{letter-spacing:0em;}.cls-20{letter-spacing:0em;}.cls-21{stroke:#a8a7ad;stroke-width:0.5px;}.cls-22{clip-path:url(#clip-path-8);}.cls-23{stroke:#ed1941;}.cls-24{clip-path:url(#clip-path-9);}.cls-25{stroke:#00aeef;}.cls-26{letter-spacing:0.01em;}.cls-27{letter-spacing:-0.01em;}.cls-28{letter-spacing:-0.01em;}.cls-29{letter-spacing:0em;}.cls-30{letter-spacing:-0.01em;}.cls-31{letter-spacing:0.01em;}</style><clipPath id="clip-path"><rect class="cls-1" x="-370.04" y="-637.99" width="612" height="792"/></clipPath><clipPath id="clip-path-4"><rect class="cls-1" x="8.61" y="9.01" width="20" height="6"/></clipPath><clipPath id="clip-path-5"><rect class="cls-1" x="8.61" y="29.01" width="20" height="6"/></clipPath><clipPath id="clip-path-6"><rect class="cls-1" x="8.61" y="49.01" width="20" height="6"/></clipPath><clipPath id="clip-path-8"><rect class="cls-1" x="112.61" y="9.01" width="20" height="6"/></clipPath><clipPath id="clip-path-9"><rect class="cls-1" x="112.61" y="29.01" width="20" height="6"/></clipPath></defs><g class="cls-2"><g class="cls-2"><rect class="cls-3" x="-370.04" y="-637.99" width="612" height="792"/><g class="cls-2"><g class="cls-4"><g class="cls-5"><line class="cls-6" x1="9.61" y1="12.01" x2="27.61" y2="12.01"/></g></g><g class="cls-4"><g class="cls-7"><line class="cls-8" x1="9.61" y1="32.01" x2="27.61" y2="32.01"/></g></g><g class="cls-4"><g class="cls-9"><line class="cls-10" x1="9.61" y1="52.01" x2="27.61" y2="52.01"/></g></g></g><text class="cls-11" transform="translate(31.47 13.85)">b2 <tspan class="cls-12" x="9.45" y="0">W</tspan><tspan class="cls-13" x="15.37" y="0">a</tspan><tspan class="cls-14" x="19.07" y="0">v</tspan><tspan class="cls-15" x="22.46" y="0">e</tspan></text><text class="cls-11" transform="translate(31.47 33.85)"><tspan class="cls-16">a</tspan><tspan x="3.63" y="0">1 </tspan><tspan class="cls-12" x="8.43" y="0">W</tspan><tspan class="cls-17" x="14.34" y="0">a</tspan><tspan class="cls-14" x="18.05" y="0">v</tspan><tspan x="21.43" y="0">e</tspan></text><text class="cls-11" transform="translate(31.47 53.85)"><tspan class="cls-17">t</tspan><tspan x="2.54" y="0">o </tspan><tspan class="cls-18" x="7.99" y="0">R</tspan><tspan class="cls-15" x="12.23" y="0">e</tspan><tspan class="cls-19" x="15.94" y="0">c</tspan><tspan class="cls-20" x="19.56" y="0">ei</tspan><tspan class="cls-14" x="25.09" y="0">v</tspan><tspan x="28.48" y="0">er</tspan></text><rect class="cls-21" x="0.11" y="0.26" width="202.72" height="63.5"/><g class="cls-2"><g class="cls-4"><g class="cls-22"><line class="cls-23" x1="113.61" y1="12.01" x2="131.61" y2="12.01"/></g></g><g class="cls-4"><g class="cls-24"><line class="cls-25" x1="113.61" y1="32.01" x2="131.61" y2="32.01"/></g></g></g><text class="cls-11" transform="translate(135.47 13.85)">Ou<tspan class="cls-26" x="8.67" y="0">t</tspan><tspan class="cls-17" x="11.26" y="0">p</tspan><tspan class="cls-20" x="15.29" y="0">ut f</tspan><tspan class="cls-27" x="25.83" y="0">r</tspan><tspan class="cls-20" x="28.36" y="0">om </tspan><tspan class="cls-28" x="39.8" y="0">D</tspan><tspan class="cls-20" x="44.37" y="0">UT</tspan></text><text class="cls-11" transform="translate(135.47 33.85)"><tspan class="cls-29">S</tspan><tspan class="cls-13" x="4.09" y="0">o</tspan><tspan x="7.93" y="0">u</tspan><tspan class="cls-30" x="11.91" y="0">r</tspan><tspan class="cls-19" x="14.44" y="0">c</tspan><tspan x="18.06" y="0">e </tspan><tspan class="cls-31" x="23.37" y="0">P</tspan><tspan x="27.46" y="0">ath</tspan></text></g></g></svg>