<svg id="Layer_1" data-name="Layer 1" xmlns="http://www.w3.org/2000/svg" xmlns:xlink="http://www.w3.org/1999/xlink" viewBox="0 0 209 64.81"><defs><style>.cls-1,.cls-21,.cls-22,.cls-23,.cls-24,.cls-4,.cls-5,.cls-6,.cls-7,.cls-8{fill:none;}.cls-2{clip-path:url(#clip-path);}.cls-3{fill:#fff;}.cls-4{stroke:#00aeef;}.cls-21,.cls-22,.cls-23,.cls-4,.cls-5,.cls-6,.cls-7,.cls-8{stroke-width:4px;}.cls-5{stroke:#25408f;}.cls-6{stroke:#fee900;}.cls-7{stroke:#00a775;}.cls-8{stroke:#d7df23;}.cls-25,.cls-9{font-size:7px;fill:#231f20;font-style:italic;}.cls-9{font-family:SanFranciscoText-Italic, San Francisco Text;}.cls-10{letter-spacing:-0.01em;}.cls-11{letter-spacing:0em;}.cls-12{letter-spacing:-0.01em;}.cls-13{letter-spacing:0em;}.cls-14{letter-spacing:-0.01em;}.cls-15{letter-spacing:0em;}.cls-16{letter-spacing:-0.02em;}.cls-17{letter-spacing:-0.01em;}.cls-18{letter-spacing:-0.02em;}.cls-19{letter-spacing:0.05em;}.cls-20{letter-spacing:0.01em;}.cls-21{stroke:#8dc63f;}.cls-22{stroke:#00a88e;}.cls-23{stroke:#007b78;}.cls-24{stroke:#231f20;stroke-width:0.25px;}.cls-25{font-family:SanFranciscoText-LightItalic, San Francisco Text;font-weight:300;}.cls-26{letter-spacing:-0.07em;}.cls-27{letter-spacing:0em;}.cls-28{letter-spacing:-0.01em;}.cls-29{letter-spacing:0em;}.cls-30{letter-spacing:0em;}.cls-31{letter-spacing:-0.01em;}.cls-32{letter-spacing:0em;}.cls-33{letter-spacing:0.07em;}.cls-34{letter-spacing:0em;}.cls-35{letter-spacing:0em;}.cls-36{letter-spacing:-0.04em;}.cls-37{letter-spacing:-0.01em;}</style><clipPath id="clip-path"><rect class="cls-1" x="-313.89" y="-298.75" width="612" height="792"/></clipPath></defs><g class="cls-2"><g class="cls-2"><rect class="cls-3" x="-313.89" y="-298.75" width="612" height="792"/><line class="cls-4" x1="10.64" y1="12.78" x2="28.64" y2="12.78"/><line class="cls-5" x1="10.64" y1="25.78" x2="28.64" y2="25.78"/><line class="cls-6" x1="10.64" y1="38.78" x2="28.64" y2="38.78"/><line class="cls-7" x1="10.64" y1="51.78" x2="28.64" y2="51.78"/><line class="cls-8" x1="114.64" y1="12.78" x2="130.36" y2="12.78"/><text class="cls-9" transform="translate(133.74 14.3)">Di<tspan class="cls-10" x="6.51" y="0">r</tspan><tspan x="9.12" y="0">ect </tspan><tspan class="cls-11" x="20.69" y="0">R</tspan><tspan x="24.98" y="0">ecei</tspan><tspan class="cls-12" x="37.96" y="0">v</tspan><tspan x="41.43" y="0">e IF</tspan></text><text class="cls-9" transform="translate(133.74 27.3)"><tspan class="cls-13">R</tspan><tspan x="4.3" y="0">e</tspan><tspan class="cls-14" x="8.04" y="0">f</tspan><tspan class="cls-15" x="10.52" y="0">lected </tspan><tspan class="cls-16" x="31.8" y="0">W</tspan><tspan x="37.72" y="0">a</tspan><tspan class="cls-17" x="41.49" y="0">v</tspan><tspan x="44.95" y="0">e IF</tspan></text><text class="cls-9" transform="translate(133.74 40.3)">Incident <tspan class="cls-18" x="27.58" y="0">W</tspan><tspan x="33.5" y="0">a</tspan><tspan class="cls-17" x="37.27" y="0">v</tspan><tspan x="40.73" y="0">e IF</tspan></text><text class="cls-9" transform="translate(133.74 53.3)">56-6<tspan class="cls-19" x="14.9" y="0">7</tspan><tspan x="19.01" y="0">GHz </tspan><tspan class="cls-20" x="33.39" y="0">M</tspan><tspan x="39.03" y="0">easu</tspan><tspan class="cls-12" x="54.09" y="0">r</tspan><tspan x="56.71" y="0">e</tspan></text><line class="cls-21" x1="114.64" y1="25.78" x2="130.36" y2="25.78"/><line class="cls-22" x1="114.64" y1="38.78" x2="130.36" y2="38.78"/><line class="cls-23" x1="114.64" y1="51.78" x2="130.36" y2="51.78"/><rect class="cls-24" x="0.14" y="0.14" width="208.73" height="64.52"/><line class="cls-4" x1="10.64" y1="12.78" x2="28.64" y2="12.78"/><text class="cls-25" transform="translate(32.5 14.3)"><tspan class="cls-12">0</tspan><tspan class="cls-26" x="4.09" y="0">.</tspan><tspan class="cls-15" x="5.39" y="0">1 </tspan><tspan class="cls-27" x="10.19" y="0">t</tspan><tspan x="12.72" y="0">o </tspan><tspan class="cls-28" x="18.17" y="0">2</tspan><tspan class="cls-15" x="21.95" y="0">0GHz </tspan><tspan class="cls-29" x="40.31" y="0">S</tspan><tspan class="cls-30" x="44.4" y="0">o</tspan><tspan x="48.24" y="0">u</tspan><tspan class="cls-31" x="52.23" y="0">r</tspan><tspan class="cls-32" x="54.76" y="0">c</tspan><tspan x="58.38" y="0">e</tspan></text><text class="cls-25" transform="translate(32.5 27.3)">56-6<tspan class="cls-33" x="14.99" y="0">7</tspan><tspan x="19.17" y="0">GHz </tspan><tspan class="cls-29" x="33.38" y="0">S</tspan><tspan class="cls-30" x="37.46" y="0">o</tspan><tspan x="41.31" y="0">u</tspan><tspan class="cls-31" x="45.29" y="0">r</tspan><tspan class="cls-32" x="47.82" y="0">c</tspan><tspan x="51.44" y="0">e </tspan></text><text class="cls-25" transform="translate(32.5 40.3)">Dis<tspan class="cls-34" x="9.89" y="0">t</tspan><tspan x="12.47" y="0">ri</tspan><tspan class="cls-13" x="16.93" y="0">b</tspan><tspan class="cls-35" x="20.96" y="0">u</tspan><tspan class="cls-27" x="24.94" y="0">t</tspan><tspan x="27.47" y="0">ed </tspan><tspan class="cls-36" x="36.81" y="0">L</tspan><tspan class="cls-35" x="40.1" y="0">O</tspan></text><text class="cls-25" transform="translate(32.5 53.3)">IF <tspan class="cls-27" x="7.18" y="0">t</tspan><tspan x="9.71" y="0">o </tspan><tspan class="cls-11" x="15.17" y="0">R</tspan><tspan class="cls-15" x="19.4" y="0">e</tspan><tspan class="cls-32" x="23.11" y="0">c</tspan><tspan x="26.73" y="0">ei</tspan><tspan class="cls-37" x="32.27" y="0">v</tspan><tspan x="35.65" y="0">er</tspan></text><line class="cls-5" x1="10.64" y1="25.78" x2="28.64" y2="25.78"/><line class="cls-6" x1="10.64" y1="38.78" x2="28.64" y2="38.78"/><line class="cls-7" x1="10.64" y1="51.78" x2="28.64" y2="51.78"/><line class="cls-8" x1="114.64" y1="12.78" x2="130.36" y2="12.78"/><line class="cls-21" x1="114.64" y1="25.78" x2="130.36" y2="25.78"/><line class="cls-22" x1="114.64" y1="38.78" x2="130.36" y2="38.78"/><line class="cls-23" x1="114.64" y1="51.78" x2="130.36" y2="51.78"/><rect class="cls-24" x="0.14" y="0.14" width="208.73" height="64.52"/></g></g></svg>