<svg id="Layer_1" data-name="Layer 1" xmlns="http://www.w3.org/2000/svg" xmlns:xlink="http://www.w3.org/1999/xlink" viewBox="0 0 106.4 64.79"><defs><style>.cls-1,.cls-10,.cls-19,.cls-6,.cls-8{fill:none;}.cls-2{clip-path:url(#clip-path);}.cls-3{fill:#fff;}.cls-4{opacity:0.75;}.cls-5{clip-path:url(#clip-path-4);}.cls-6{stroke:#fee900;}.cls-10,.cls-6,.cls-8{stroke-width:4px;}.cls-7{clip-path:url(#clip-path-5);}.cls-8{stroke:#f58220;}.cls-9{clip-path:url(#clip-path-6);}.cls-10{stroke:#d2232a;}.cls-11{font-size:7px;fill:#231f20;font-family:SanFranciscoText-Italic, San Francisco Text;font-style:italic;}.cls-12{letter-spacing:0.01em;}.cls-13{letter-spacing:-0.04em;}.cls-14{letter-spacing:0.02em;}.cls-15{letter-spacing:-0.01em;}.cls-16{letter-spacing:-0.01em;}.cls-17{letter-spacing:0.07em;}.cls-18{letter-spacing:0.01em;}.cls-19{stroke:#231f20;stroke-width:0.25px;}</style><clipPath id="clip-path"><rect class="cls-1" x="-314.01" y="-640.66" width="612" height="792"/></clipPath><clipPath id="clip-path-4"><rect class="cls-1" x="8.64" y="9.77" width="20" height="6"/></clipPath><clipPath id="clip-path-5"><rect class="cls-1" x="8.64" y="29.77" width="20" height="6"/></clipPath><clipPath id="clip-path-6"><rect class="cls-1" x="8.64" y="49.77" width="20" height="6"/></clipPath></defs><g class="cls-2"><g class="cls-2"><rect class="cls-3" x="-314.01" y="-640.66" width="612" height="792"/><g class="cls-2"><g class="cls-4"><g class="cls-5"><line class="cls-6" x1="9.64" y1="12.77" x2="27.64" y2="12.77"/></g></g><g class="cls-4"><g class="cls-7"><line class="cls-8" x1="9.64" y1="32.77" x2="27.64" y2="32.77"/></g></g><g class="cls-4"><g class="cls-9"><line class="cls-10" x1="9.64" y1="52.77" x2="27.64" y2="52.77"/></g></g></g><text class="cls-11" transform="translate(31.51 14.29)">Dis<tspan class="cls-12" x="10.03" y="0">t</tspan><tspan x="12.7" y="0">ributed </tspan><tspan class="cls-13" x="37.4" y="0">L</tspan><tspan x="40.71" y="0">O</tspan></text><text class="cls-11" transform="translate(31.51 34.29)"><tspan class="cls-14">D</tspan><tspan class="cls-15" x="4.75" y="0">o</tspan><tspan x="8.56" y="0">wncon</tspan><tspan class="cls-16" x="29.19" y="0">v</tspan><tspan x="32.65" y="0">e</tspan><tspan class="cls-12" x="36.39" y="0">r</tspan><tspan x="39.13" y="0">ted IF</tspan></text><text class="cls-11" transform="translate(31.51 54.29)">56-6<tspan class="cls-17" x="14.9" y="0">7</tspan><tspan x="19.15" y="0">GHz </tspan><tspan class="cls-18" x="33.53" y="0">M</tspan><tspan x="39.18" y="0">easu</tspan><tspan class="cls-16" x="54.24" y="0">r</tspan><tspan x="56.85" y="0">e</tspan></text><rect class="cls-19" x="0.14" y="0.12" width="106.13" height="64.52"/></g></g></svg>